<?xml version="1.0" standalone="no"?>
<!DOCTYPE svg PUBLIC "-//W3C//DTD SVG 1.1//EN" "http://www.w3.org/Graphics/SVG/1.1/DTD/svg11.dtd" >
<svg xmlns="http://www.w3.org/2000/svg" xmlns:xlink="http://www.w3.org/1999/xlink" version="1.1">
<metadata>
Created by FontForge 20170731 at Mon Mar 25 23:16:24 2002
 By Aleksey,,,
Baar Philos (c)2002  &#60;lutz@antropos.org&#62; Lutz Baar, Sweden
</metadata>
<defs>
<font id="BaarPhilosBold" horiz-adv-x="623" >
  <font-face 
    font-family="Baar Philos"
    font-weight="700"
    font-stretch="normal"
    units-per-em="1000"
    panose-1="0 0 7 0 0 0 0 0 0 0"
    ascent="800"
    descent="-200"
    x-height="516"
    cap-height="693"
    bbox="-63 -215 1403 912"
    underline-thickness="50"
    underline-position="-175"
    unicode-range="U+0020-F002"
  />
<missing-glyph horiz-adv-x="500" 
d="M63 0v778h375v-778h-375zM125 63h250v653h-250v-653z" />
    <glyph glyph-name=".notdef" horiz-adv-x="500" 
d="M63 0v778h375v-778h-375zM125 63h250v653h-250v-653z" />
    <glyph glyph-name=".null" horiz-adv-x="0" 
 />
    <glyph glyph-name="nonmarkingreturn" horiz-adv-x="296" 
 />
    <glyph glyph-name="space" unicode=" " horiz-adv-x="296" 
 />
    <glyph glyph-name="exclam" unicode="!" horiz-adv-x="317" 
d="M223 214l-99 -3q0 215 -18 520q48 4 155 12q-33 -332 -38 -529zM243 2l-144 -7l5 123l142 7z" />
    <glyph glyph-name="quotedbl" unicode="&#x22;" horiz-adv-x="410" 
d="M276 401l-60 -15l-7 345l130 4zM122 404l-61 -15l-3 337l129 4z" />
    <glyph glyph-name="numbersign" unicode="#" horiz-adv-x="714" 
d="M669 395h-151l-16 -94h140l1 -84h-155l-35 -219h-91l36 219h-103l-37 -219h-93l39 219h-142l2 84h152l16 94h-144v84h157l32 205h92l-34 -205h103l34 205h90l-32 -205h140zM322 395l-15 -94h104l15 94h-104z" />
    <glyph glyph-name="dollar" unicode="$" horiz-adv-x="512" 
d="M204 -9q-9 -42 -19 -79q-36 1 -92 1q24 50 39 87q-55 17 -103 40l27 104q55 -33 102 -52l56 212q-74 42 -108 77q-52 52 -52 114q0 84 65 131q59 42 146 42q9 0 45 -1l13 74h88q-19 -56 -28 -85q48 -15 97 -39q-14 -56 -25 -112q-52 41 -93 66l-52 -195q79 -41 116 -77
q56 -53 56 -121q0 -99 -96 -149q-76 -39 -182 -38zM286 585q-46 1 -80 -20q-37 -23 -37 -61q0 -42 73 -92l49 173h-5zM279 271l-51 -195h13q50 0 87 27.5t37 70.5q0 46 -86 97z" />
    <glyph glyph-name="percent" unicode="%" horiz-adv-x="1020" 
d="M779 -8q-185 0 -185 219q0 98 41 160q50 75 152 75q184 0 184 -225q0 -98 -41 -157q-49 -72 -151 -72zM575 391q-19 -42 -173 -393l-120 2q59 113 167 332q62 139 142 331h119q-47 -94 -135 -272zM218 216q-183 0 -183 221q0 98 41 159q51 74 152 74q182 0 182 -223
q0 -99 -41 -159q-49 -72 -151 -72zM787 368q-49 0 -71 -59q-15 -40 -15 -99q0 -52 14 -88q21 -52 64 -52q86 0 86 146q0 65 -10 96q-17 56 -68 56zM226 592q-48 0 -69 -58q-15 -40 -15 -97q0 -143 77 -143q87 0 87 163q0 61 -11 89q-17 46 -69 46z" />
    <glyph glyph-name="ampersand" unicode="&#x26;" horiz-adv-x="647" 
d="M499 -6q-26 24 -54 64q-107 -69 -193 -69q-83 0 -138 46q-58 49 -58 129q0 64 48 115q30 34 98 75q-69 89 -69 155q0 73 56 118q52 43 127 43q70 0 119 -39q53 -42 53 -110q0 -91 -134 -178l111 -132q32 56 70 137q42 -54 74 -86q-37 -64 -84 -124q33 -37 113 -122
q-90 -18 -139 -22zM312 586q-30 0 -49.5 -18.5t-19.5 -47.5q0 -35 54 -107q86 59 86 107q0 29 -20.5 47.5t-50.5 18.5zM261 285q-88 -65 -88 -116q0 -37 28.5 -61.5t68.5 -24.5q47 0 119 46z" />
    <glyph glyph-name="quotesingle" unicode="'" horiz-adv-x="271" 
d="M174 590q-7 -14 -65 -123l-79 -9q29 83 54 269q17 1 133 8q-11 -77 -43 -145z" />
    <glyph glyph-name="parenleft" unicode="(" horiz-adv-x="408" 
d="M218 255q0 -122 60 -235q52 -99 165 -217l-107 -5q-239 215 -239 465q0 241 246 469l111 8q-119 -127 -174 -235q-62 -121 -62 -250z" />
    <glyph glyph-name="parenright" unicode=")" horiz-adv-x="409" 
d="M38 -202l-101 -1q235 250 235 481q0 121 -63 241q-56 106 -170 229l122 -12q106 -95 166 -210q65 -124 65 -252q0 -241 -254 -476z" />
    <glyph glyph-name="asterisk" unicode="*" horiz-adv-x="467" 
d="M377 392q-53 42 -123 96l21 -156q-53 2 -105 0q7 49 26 153q-50 -34 -129 -92q-21 35 -50 80l150 62q-56 24 -150 63q27 38 54 84q54 -43 123 -97q-10 87 -21 153q32 1 106 4q-15 -84 -26 -158q71 52 125 96q13 -23 42 -72q-62 -36 -129 -76q75 -30 134 -56z" />
    <glyph glyph-name="plus" unicode="+" horiz-adv-x="713" 
d="M618 241h-225l-6 -224h-103l7 224h-212l3 87h210l7 203h103l-7 -203h224z" />
    <glyph glyph-name="comma" unicode="," horiz-adv-x="292" 
d="M211 -8q-6 -12 -67 -125l-85 -10q30 84 56 275q14 1 139 8q-10 -78 -43 -148z" />
    <glyph glyph-name="hyphen" unicode="-" horiz-adv-x="437" 
d="M395 218q-75 4 -156 4q-22 0 -190 -4l7 112q128 -3 198 -3q57 0 147 5q-2 -52 -6 -114z" />
    <glyph glyph-name="hyphen" unicode="&#x2010;" horiz-adv-x="437" 
d="M395 218q-75 4 -156 4q-22 0 -190 -4l7 112q128 -3 198 -3q57 0 147 5q-2 -52 -6 -114z" />
    <glyph glyph-name="period" unicode="." horiz-adv-x="255" 
d="M210 3l-149 -8l5 135l147 7z" />
    <glyph glyph-name="slash" unicode="/" horiz-adv-x="489" 
d="M110 -120l-120 -5q230 453 399 863l114 2q-254 -534 -393 -860z" />
    <glyph glyph-name="zero" unicode="0" horiz-adv-x="647" 
d="M311 -13q-278 0 -278 379q0 141 70 229q78 98 224 98q152 0 224 -109q58 -89 58 -239q0 -157 -63 -248q-75 -110 -235 -110zM324 602q-154 0 -154 -255q0 -268 148 -268q90 0 128 101q26 68 26 174q0 100 -29 163q-37 85 -119 85z" />
    <glyph glyph-name="one" unicode="1" horiz-adv-x="440" 
d="M298 352v-186q0 -73 6 -168q-70 -1 -140 -4q11 387 11 523v70l-112 -19q4 42 8 98q112 12 241 30q-14 -167 -14 -344z" />
    <glyph glyph-name="two" unicode="2" horiz-adv-x="556" 
d="M510 5q-120 -7 -457 -7q-17 44 -39 77q58 75 121 138t128 126q94 98 94 137q0 53 -30.5 87.5t-83.5 34.5q-67 0 -185 -73l8 116q106 52 198 52q98 0 161 -62t63 -156q0 -63 -116 -192q-20 -23 -171 -174l330 -11z" />
    <glyph glyph-name="three" unicode="3" horiz-adv-x="605" 
d="M253 -12q-101 0 -202 48q2 44 6 115q112 -73 190 -73q72 0 120 34q53 37 53 101q0 60 -48 94q-44 31 -113 31q-31 0 -78 -15l-35 45q117 116 205 221q-74 -2 -130.5 -8t-69.5 -6q-30 0 -83 10l20 100q59 -7 130 -7q145 0 284 6l28 -50q-75 -91 -185 -214q93 -10 148 -60
q61 -55 61 -147q0 -112 -99 -174q-84 -51 -202 -51z" />
    <glyph glyph-name="four" unicode="4" 
d="M587 182l-98 -4q-1 -47 1 -181q-76 0 -133 -3q9 95 10 181l-321 -20l-19 42l4 61q164 226 290 427q107 0 179 1q-10 -197 -10 -418q27 0 114 3zM163 267h206l1 296z" />
    <glyph glyph-name="five" unicode="5" horiz-adv-x="605" 
d="M241 -12q-94 0 -187 37l7 109q102 -53 175 -53q77 0 128 37q55 40 55 108q0 67 -51 105q-47 36 -121 36q-60 0 -128 -39l-40 31q18 202 22 325q46 0 409 3q-5 -46 -12 -89q-58 -7 -151 -16q-69 -7 -70 -7q-16 0 -63 11l-8 -127q40 6 68 6q115 0 192 -59q86 -64 86 -173
q0 -117 -100 -185q-88 -60 -211 -60z" />
    <glyph glyph-name="six" unicode="6" 
d="M325 -12q-144 0 -218 96q-65 84 -65 224q0 167 76 269q88 117 259 117q53 0 144 -5l-19 -100q-70 12 -116 12q-153 0 -212 -211q83 51 175 51q101 0 166.5 -61.5t65.5 -157.5q0 -105 -73.5 -169.5t-182.5 -64.5zM325 343q-92 0 -147 -76q5 -183 147 -183q59 0 94 38
t35 97q0 57 -35 90.5t-94 33.5z" />
    <glyph glyph-name="seven" unicode="7" horiz-adv-x="556" 
d="M379 323q-82 -182 -123 -325q-76 0 -167 -5q124 226 281 595q-70 -5 -210 -13l-40 -27l-93 -11l36 140q18 0 437 9l23 -49q-49 -105 -144 -314z" />
    <glyph glyph-name="eight" unicode="8" 
d="M309 -12q-109 0 -182 48q-86 56 -86 160q0 112 114 174q-79 61 -79 141q0 93 82 143q67 40 165 40q91 0 157 -37q83 -47 83 -134q0 -85 -91 -150q109 -63 109 -171q0 -106 -86 -164q-74 -50 -186 -50zM320 601q-51 0 -84 -25q-36 -28 -36 -72q0 -36 39 -63q36 -25 78 -25
q49 0 83 23q38 25 38 66q0 43 -35 69.5t-83 26.5zM316 320q-61 0 -101 -33t-40 -89t39 -87t100 -31q57 0 97.5 33.5t40.5 86.5t-39.5 86.5t-96.5 33.5z" />
    <glyph glyph-name="nine" unicode="9" horiz-adv-x="621" 
d="M240 -10q-61 0 -150 18l-19 102q91 -25 158 -25q85 0 141 63q49 55 66 145q-80 -52 -172 -52q-101 0 -166 60.5t-65 156.5q0 106 78 173q74 63 184 63q146 0 216 -98q60 -82 60 -224q0 -160 -78 -263q-89 -119 -253 -119zM292 598q-59 0 -96 -37.5t-37 -96.5
q0 -57 35.5 -91t95.5 -34q44 0 84 23t62 61v23q0 64 -40 108t-104 44z" />
    <glyph glyph-name="colon" unicode=":" horiz-adv-x="293" 
d="M243 397l-148 -6l4 125l149 5zM240 1l-149 -6l5 124l148 7z" />
    <glyph glyph-name="semicolon" unicode=";" horiz-adv-x="292" 
d="M260 402l-148 -6l3 123l148 6zM211 -12q-5 -11 -67 -121l-85 -10q30 82 56 267q14 0 139 7q-10 -76 -43 -143z" />
    <glyph glyph-name="less" unicode="&#x3c;" horiz-adv-x="714" 
d="M713 587l-574 -246l572 -246l-2 -102l-692 305l4 87l695 305z" />
    <glyph glyph-name="equal" unicode="=" horiz-adv-x="684" 
d="M583 321h-475l4 97h477zM583 161h-477l5 97h476z" />
    <glyph glyph-name="greater" unicode="&#x3e;" horiz-adv-x="714" 
d="M711 297l-695 -305l3 104l574 245l-572 247l2 102l692 -304z" />
    <glyph glyph-name="question" unicode="?" horiz-adv-x="494" 
d="M390 377q-47 -66 -53 -76q-26 -42 -39 -85q-42 -1 -107 -5q12 70 33 110q2 3 61 94q40 63 40 117q0 94 -108 94q-37 0 -77 -22q-31 -18 -97 -70q12 56 35 149q68 42 164 42q93 0 151 -40q66 -46 66 -136q0 -74 -69 -172zM317 -2l-147 -2l4 124l148 1z" />
    <glyph glyph-name="at" unicode="@" horiz-adv-x="862" 
d="M468 -72q-166 0 -275 91q-117 96 -117 254q0 159 120 267q117 106 283 106q131 0 216 -74q88 -77 88 -203q0 -92 -45 -176q-57 -103 -152 -103q-35 0 -55 14q-15 11 -35 40q-66 -53 -120 -53q-69 0 -108 54q-34 46 -34 111q0 82 45 149q53 78 139 78q54 0 107 -46l4 27
h87l-24 -136q-13 -79 -13 -138q0 -20 6 -24t19 -4q7 0 27 17q77 67 77 187q0 101 -62.5 157.5t-169.5 56.5q-134 0 -229.5 -93t-95.5 -221q0 -126 90 -201q86 -71 220 -71q140 0 299 126l46 -49q-170 -143 -338 -143zM431 410q-47 0 -77 -52q-26 -45 -26 -101
q0 -39 17.5 -66t50.5 -27q48 0 79 49q27 44 27 99q0 40 -17 67q-20 31 -54 31z" />
    <glyph glyph-name="A" unicode="A" horiz-adv-x="662" 
d="M527 -8q-21 77 -63 223q-159 -24 -176 -24q-18 0 -80 12q-37 -106 -65 -201q-43 -2 -139 -9q18 44 116 296q48 123 144 379q56 8 176 20q27 -99 112 -342l119 -342q-67 -6 -144 -12zM346 562l-105 -270h195z" />
    <glyph glyph-name="B" unicode="B" horiz-adv-x="642" 
d="M474 15q-56 -19 -179 -19l-205 -1q11 153 11 317v180q0 52 -2 114l56 80q26 0 83 3q50 3 77 3q259 0 259 -164q0 -97 -91 -157q52 -22 86 -55q43 -42 43 -86q0 -86 -28 -134q-32 -55 -110 -81zM269 321l15 83q155 7 165 78q1 9 1 28q0 92 -143 92q-13 0 -79 -6
q-3 -207 -3 -311q0 -103 2 -198h72q71 0 108 12q59 18 69 71q4 17 4 60q0 77 -211 91z" />
    <glyph glyph-name="C" unicode="C" horiz-adv-x="657" 
d="M564 498q-21 58 -47 83t-73 25q-180 0 -229 -126q-15 -37 -15 -111q0 -129 49 -204q58 -90 178 -90q99 0 201 63l-6 -116q-106 -38 -207 -38q-178 0 -274 116q-88 106 -88 278q0 154 109 241q100 80 262 80q95 0 188 -30l38 -131z" />
    <glyph glyph-name="D" unicode="D" horiz-adv-x="747" 
d="M658 196q-60 -121 -166 -166q-84 -35 -237 -35h-159q7 147 7 282q0 157 -8 326l53 84q25 0 93 1q58 1 88 1q177 0 265 -63q102 -73 102 -241q0 -114 -38 -189zM546 496q-49 103 -218 103q-37 0 -93 -2q-5 -181 -5 -357q0 -73 1 -152h7q125 0 179 19q79 27 120 115
q26 54 26 170q0 71 -17 104z" />
    <glyph glyph-name="E" unicode="E" horiz-adv-x="582" 
d="M83 -2q14 190 14 420q0 37 -6 194l56 73l376 3l-11 -92l-279 -8q-3 -74 -5 -186q155 0 254 2l-9 -88l-200 -16q-15 0 -47 7v-30q0 -35 1 -85q2 -67 2 -85q197 -14 294 -11l9 -90q-147 -4 -449 -8z" />
    <glyph glyph-name="F" unicode="F" horiz-adv-x="516" 
d="M493 589l-57 1q-36 0 -106 -4.5t-105 -4.5l-6 -192q145 2 243 4q-9 -44 -17 -88q-178 -15 -179 -15q-10 0 -45 7q-2 -46 -2 -88q0 -95 6 -211q-67 0 -146 -4q16 163 16 427q0 -15 -7 196l56 70q64 -4 126 -4q42 0 112 2q94 2 126 3q-11 -56 -15 -99z" />
    <glyph glyph-name="G" unicode="G" horiz-adv-x="753" 
d="M673 28q-127 -44 -222 -44q-102 0 -191 40q-95 43 -148 121q-57 86 -57 220q0 171 110 256q100 77 281 77q91 0 199 -27l-20 -124q-96 61 -174 61q-246 0 -246 -236q0 -137 37 -197q65 -104 209 -104q49 0 111 17q7 39 7 102q0 26 -1 53l-49 14l31 77q95 -1 151 0
q-11 -101 -28 -306z" />
    <glyph glyph-name="H" unicode="H" horiz-adv-x="757" 
d="M675 315q0 -156 10 -314q-37 -1 -142 -7q4 115 10 336q-35 -1 -146 -13l-101 -11q-23 0 -77 14q-1 -55 -1 -96q0 -116 7 -223q-36 -1 -141 -7q9 265 9 472q0 110 -6 219q45 0 143 3q-4 -64 -11 -273l323 8q0 154 -6 256q44 5 140 15q-11 -210 -11 -379z" />
    <glyph glyph-name="I" unicode="I" horiz-adv-x="309" 
d="M223 190q0 -92 4 -189q-2 0 -127 -9q2 77 2 144q0 86 -4 224q-5 181 -6 224l-23 17l-10 83l178 9q-14 -376 -14 -503z" />
    <glyph glyph-name="J" unicode="J" horiz-adv-x="388" 
d="M307 202q0 -96 -45 -150q-50 -60 -149 -60q-33 0 -85 10v96q46 -11 67 -11q54 0 73 35q15 26 15 89q0 199 -4 374h-128l30 95l242 8q-16 -304 -16 -486z" />
    <glyph glyph-name="K" unicode="K" horiz-adv-x="649" 
d="M507 -9q-30 83 -71 167q-59 122 -92 131q-17 5 -63 5h-52v-67q-1 -43 -1 -67q0 -83 4 -162q-67 0 -144 -4q11 171 11 452q0 125 -7 238q52 0 146 4q-3 -60 -9 -303q22 0 36 5q44 16 193 299l126 -29l-86 -148q-52 -81 -114 -129q37 -5 61 -19q44 -26 205 -366z" />
    <glyph glyph-name="L" unicode="L" horiz-adv-x="493" 
d="M493 4q-73 0 -202 -4q-153 -5 -203 -5q9 143 9 295v241q0 70 -9 140l136 25q20 -78 25 -119q1 -42 -10 -147q-14 -142 -24 -325l287 -14z" />
    <glyph glyph-name="M" unicode="M" horiz-adv-x="920" 
d="M716 -9l1 174q0 90 -12 376q-139 -186 -198 -324l-92 -4q-57 175 -184 334q-21 -324 -28 -549q-58 -1 -128 -5q21 135 35 346q17 266 24 341q49 5 148 12q137 -202 188 -313q44 82 124 198q26 35 78 112q48 -4 154 -9q1 -123 29 -679q-75 -1 -139 -10z" />
    <glyph glyph-name="N" unicode="N" horiz-adv-x="749" 
d="M674 14q-35 -7 -109 -17q-68 144 -222 363q-43 63 -136 186q2 -178 14 -548q-61 0 -132 -4q10 224 10 407q0 90 -5 267l165 18q62 -76 124 -169q121 -183 178 -283q-4 260 -16 451q67 0 139 3q-14 -470 -10 -674z" />
    <glyph glyph-name="O" unicode="O" horiz-adv-x="770" 
d="M397 -19q-167 0 -256 115q-77 102 -77 265q0 164 86.5 251t257.5 87q93 0 169 -37q85 -41 124 -118q30 -58 30 -168q0 -158 -80 -269q-92 -126 -254 -126zM567 518q-51 90 -161 90q-62 0 -111.5 -31.5t-71.5 -86.5q-12 -29 -12 -101q0 -139 29 -210q43 -106 156 -106
q103 0 154 93q41 75 41 191q0 119 -24 161z" />
    <glyph glyph-name="P" unicode="P" horiz-adv-x="608" 
d="M244 237l-17 90q148 2 203 59q29 30 29 103q0 54 -20 75q-35 37 -127 37q-34 0 -86 -3q-4 -144 -4 -269q1 -106 6 -329q-63 -2 -139 -6q7 161 7 258v180q0 84 -4 189l59 66q126 2 174 2q113 0 183 -41q86 -51 86 -158q0 -132 -111 -198q-91 -54 -239 -55z" />
    <glyph glyph-name="Q" unicode="Q" horiz-adv-x="770" 
d="M522 8q58 -22 184 -71l-10 -55q-35 3 -97 10q-16 2 -67.5 17t-64.5 21q-26 13 -76 53q-165 2 -251 116q-76 100 -76 263q0 337 344 337q211 0 293 -154q30 -56 30 -168q0 -109 -50 -213q-60 -123 -159 -156zM567 518q-51 90 -161 90q-62 0 -111.5 -31.5t-71.5 -85.5
q-12 -30 -12 -101q0 -139 29 -210q43 -105 156 -105q102 0 154 92q41 75 41 191q0 118 -24 160z" />
    <glyph glyph-name="R" unicode="R" horiz-adv-x="649" 
d="M539 -12q-170 186 -283 290l-17 76q105 12 151 37q62 33 62 104q0 59 -29 82.5t-93 23.5q-30 0 -101 -5q-4 -187 -4 -263q0 -157 9 -335q-66 0 -140 -4q9 280 9 373q0 122 -5 250l59 69q131 6 155 6q197 0 247 -88q19 -34 19 -99q0 -82 -49 -133q-39 -39 -121 -70
q79 -91 258 -289z" />
    <glyph glyph-name="S" unicode="S" horiz-adv-x="580" 
d="M264 -16q-125 0 -212 16l10 102l32 6q40 -9 81 -18q48 -10 82 -10q60 0 99.5 33.5t39.5 89.5q0 37 -31 59q-20 15 -64 29q-56 16 -112 33q-60 23 -90 56q-37 42 -37 111q0 64 15 96q27 58 102 88q60 23 132 23q110 0 196 -23q-7 -52 -11 -111q-96 41 -182 41
q-34 0 -65 -11q-36 -12 -48 -33q-10 -17 -10 -58q0 -38 31 -59q20 -14 66 -26q111 -29 113 -30q62 -20 93 -53q38 -42 38 -113q0 -109 -80 -175q-75 -63 -188 -63z" />
    <glyph glyph-name="T" unicode="T" horiz-adv-x="555" 
d="M206 576q-27 0 -92.5 6t-106.5 6q2 45 6 97q76 -3 172 -3q167 0 360 6l-10 -97q-79 -1 -197 -16q-4 -151 -4 -288q0 -45 7 -289q-69 0 -147 -4q13 229 13 427q0 73 -1 155z" />
    <glyph glyph-name="U" unicode="U" horiz-adv-x="736" 
d="M668 366q-14 -145 -23 -183q-21 -95 -74 -142q-65 -57 -191 -57q-127 0 -192 50q-68 52 -86 171q-13 82 -15 228q-3 168 -9 238q64 9 150 18l-1 -233q0 -154 9 -226q11 -80 40 -114q35 -41 111 -41q77 0 110 44q27 35 38 119q19 146 19 319q0 56 -2 128q62 -1 148 -8z
" />
    <glyph glyph-name="V" unicode="V" horiz-adv-x="630" 
d="M385 1q-43 -1 -157 -7q-24 88 -66 211q-34 101 -68 201q-26 82 -89 261q100 12 158 31q59 -252 158 -562q102 252 159 551l158 -15q-36 -89 -123 -341q-71 -209 -130 -330z" />
    <glyph glyph-name="W" unicode="W" horiz-adv-x="935" 
d="M860 342q-32 -129 -102 -341q-70 -1 -172 -7q-16 96 -48 230q-25 111 -51 221q-31 -100 -90 -303q-17 -63 -40 -138q-89 -4 -162 -8q-33 167 -67 333q-42 194 -91 327l155 32q13 -86 41 -250l54 -294l134 462l155 37q20 -109 110 -503q67 217 90 435q3 32 11 108l151 -13
q-26 -112 -78 -328z" />
    <glyph glyph-name="X" unicode="X" horiz-adv-x="600" 
d="M444 -7q-65 151 -154 272q-55 -84 -82 -127q-44 -72 -77 -136q-49 -1 -146 -6q84 123 240 360q-40 55 -96 145q-93 149 -101 162q68 11 148 30l62 -124q37 -72 68 -120q84 117 135 238l138 -20q-73 -103 -211 -300q113 -145 230 -366q-94 -4 -154 -8z" />
    <glyph glyph-name="Y" unicode="Y" horiz-adv-x="580" 
d="M359 287q-3 -88 -3 -113q0 -44 6 -174q-62 -1 -141 -5q5 134 5 246q0 18 -2 38q-93 171 -220 387l147 26q49 -136 152 -305q41 59 81 146q7 15 66 153q55 -7 140 -13q-49 -89 -117 -201q-57 -93 -114 -185z" />
    <glyph glyph-name="Z" unicode="Z" horiz-adv-x="556" 
d="M523 -1l-211 3q-52 0 -137 -2q-111 -3 -145 -3l-21 76q59 97 330 521q-139 0 -305 -2q11 48 15 95l287 -4q85 0 167 4l20 -45q-61 -88 -177 -263q-52 -91 -157 -274q233 -15 346 -12z" />
    <glyph glyph-name="bracketleft" unicode="[" horiz-adv-x="340" 
d="M330 654q-62 1 -99 2q-13 -232 -13 -542q0 -92 1 -233q55 1 107 4q-3 -42 -5 -88q-85 1 -227 1q15 219 15 523v180q0 109 -3 238q189 0 229 1q-3 -40 -5 -86z" />
    <glyph glyph-name="backslash" unicode="\" horiz-adv-x="489" 
d="M384 -132q-184 447 -382 871l115 -2q75 -195 271 -631q33 -72 109 -236z" />
    <glyph glyph-name="bracketright" unicode="]" horiz-adv-x="329" 
d="M221 157v-118q0 -110 4 -241q-142 0 -228 -1l4 85l99 -2q14 227 14 517q0 105 -2 258q-30 0 -107 -3q3 42 5 88q85 -1 227 -1q-16 -226 -16 -582z" />
    <glyph glyph-name="asciicircum" unicode="^" horiz-adv-x="780" 
d="M506 459l-113 182l-129 -179l-123 -3l213 282l86 4l190 -282z" />
    <glyph glyph-name="underscore" unicode="_" horiz-adv-x="534" 
d="M559 -118h-565l-1 82l566 1v-83z" />
    <glyph glyph-name="grave" unicode="`" horiz-adv-x="312" 
d="M166 573q-91 80 -108 164l134 2q6 -61 57 -166h-83z" />
    <glyph glyph-name="a" unicode="a" horiz-adv-x="541" 
d="M416 -15q-10 13 -29 40q-77 -40 -194 -40q-77 0 -121 57q-37 50 -37 124q0 114 112 162q61 26 212 42q-3 39 -23 53.5t-67 14.5q-69 0 -167 -39q9 52 13 107q58 18 142 18h35q86 0 129.5 -34.5t53.5 -116.5q2 -16 11 -176q6 -104 29 -175zM359 288q-103 -15 -126 -22
q-74 -25 -74 -84q0 -44 18 -74q19 -35 54 -35q89 0 141 34z" />
    <glyph glyph-name="b" unicode="b" horiz-adv-x="607" 
d="M507 91q-53 -61 -144 -82q-58 -13 -164 -13h-27l-89 40q8 199 8 428q0 147 -11 284l135 24l-7 -278q79 31 136 31q106 0 169 -70q59 -66 59 -168q0 -122 -65 -196zM311 436q-45 0 -105 -34q-4 -228 -4 -236l1 -80q27 -4 44 -4q106 0 155.5 47t49.5 148q0 68 -36 112
q-39 47 -105 47z" />
    <glyph glyph-name="c" unicode="c" horiz-adv-x="515" 
d="M485 399q-70 36 -143 36q-174 0 -174 -181q0 -79 48 -127.5t129 -48.5q88 0 150 15l-10 -91q-50 -10 -115 -10h-47q-126 0 -206 78t-80 200q0 126 79 192q74 64 206 64q89 0 179 -16q-9 -44 -16 -111z" />
    <glyph glyph-name="d" unicode="d" horiz-adv-x="612" 
d="M463 -8l-26 44q-93 -48 -160 -48q-109 0 -175 96q-57 83 -57 188q0 114 88 184q78 63 233 63q22 0 54 -3v61q0 58 -7 171q49 8 136 25q-15 -193 -15 -356q0 -47 3.5 -141t3.5 -141q0 -31 23 -94zM416 431q-26 1 -46 1q-204 0 -204 -159q0 -73 33 -127q39 -63 104 -63
q62 0 120 42q0 44 -3 153q-4 103 -4 153z" />
    <glyph glyph-name="e" unicode="e" horiz-adv-x="570" 
d="M433 207h-251q6 -74 65 -105q48 -26 142 -26q46 0 117 15l-9 -89q-77 -9 -136 -9q-312 0 -312 265q0 269 268 269q212 0 215 -277q-38 -20 -99 -43zM310 448q-131 0 -131 -158v-6l231 19q-4 72 -17 98q-22 47 -83 47z" />
    <glyph glyph-name="f" unicode="f" horiz-adv-x="385" 
d="M398 679q-31 -5 -80 -19q-52 -16 -61 -24q-22 -19 -28 -59q-2 -14 -2 -66l174 1q-5 -28 -18 -85q-53 -2 -154 -9l-1 -279q0 -68 9 -138q-41 -2 -133 -9q12 164 11 335v82q-21 -3 -81 -6q3 34 12 107l66 1q5 104 16 133q23 58 104 91q27 11 87 28q66 19 102 32z" />
    <glyph glyph-name="g" unicode="g" horiz-adv-x="599" 
d="M420 34q-69 -42 -143 -42q-109 0 -175 94q-57 82 -57 187q0 114 88 184q78 63 233 63q30 0 84 -4q65 -4 96 -5q-5 -61 -5 -121q0 -32 1 -94t1 -93q0 -187 -28 -257q-26 -64 -98 -101q-64 -34 -139 -34q-92 0 -193 48l48 86q62 -42 140 -42q66 0 104.5 35t42.5 96z
M416 432q-26 1 -46 1q-198 0 -198 -159q0 -74 30 -126q36 -61 101 -61q60 0 118 42q0 42 -3 151q-2 99 -2 152z" />
    <glyph glyph-name="h" unicode="h" horiz-adv-x="637" 
d="M553 -30l-100 -30q8 89 8 188q0 122 -9 193q-7 54 -26 80q-23 31 -69 31q-80 0 -139 -36q-1 -63 -1 -124q0 -146 5 -273q-75 -2 -133 -5q10 153 10 380q0 266 -7 374q82 13 141 25q-14 -136 -16 -285q87 36 186 36q106 0 147 -69q29 -50 29 -153q0 -202 -26 -332z" />
    <glyph glyph-name="i" unicode="i" horiz-adv-x="281" 
d="M209 624q-32 -24 -61 -33q-7 -3 -67 -17q-6 63 -28 134q65 19 88 27q47 17 82 39zM198 239q0 -109 6 -237q-10 0 -133 -8q11 101 11 205v118q0 80 -10 180q65 10 135 24q-9 -150 -9 -282z" />
    <glyph glyph-name="j" unicode="j" horiz-adv-x="279" 
d="M209 624q-32 -24 -61 -33q-7 -3 -67 -17q-6 63 -28 134q65 19 88 27q47 17 82 39zM201 125q0 -189 -33 -244q-24 -40 -73 -57q-4 -2 -94 -22l-23 66q59 20 78 45q16 23 20 78q3 38 3 96v145q0 143 -10 267q80 9 145 20q-13 -150 -13 -394z" />
    <glyph glyph-name="k" unicode="k" horiz-adv-x="593" 
d="M443 -7q-7 57 -22 148q-10 45 -29.5 64.5t-66.5 29.5q-32 8 -122 20q0 -80 4 -253q-61 0 -132 -4q12 161 12 320v198q0 93 -9 234q59 9 138 24q-11 -157 -11 -396v-51q112 63 182 185q39 0 145 3q-71 -118 -182 -196q100 -13 135 -44t56 -129q8 -35 23 -139z" />
    <glyph glyph-name="l" unicode="l" horiz-adv-x="276" 
d="M199 353q0 -110 6 -353l-133 -5q5 50 7 138q4 186 4 329q0 140 -9 286q77 13 142 25q-17 -224 -17 -420z" />
    <glyph glyph-name="m" unicode="m" horiz-adv-x="918" 
d="M736 -17q4 96 4 190v58q0 92 -7 123q-18 76 -83 76q-83 0 -125 -26q2 -53 2 -250q0 -85 4 -154q-53 -1 -134 -5q13 185 13 312q0 78 -40 106q-34 25 -121 25q-20 0 -48 -5q0 -37 -2 -137q-1 -86 -1 -137q0 -86 4 -159q-43 0 -135 -6q12 102 12 217v93q0 104 -9 203
q139 21 239 21q54 0 91 -12q32 -11 77 -40q74 50 218 50q165 0 165 -209q0 -19 -2 -56t-2 -55q0 -35 3 -91q5 -79 5 -100q-50 -9 -128 -32z" />
    <glyph glyph-name="n" unicode="n" horiz-adv-x="604" 
d="M435 -20q0 55 -2 161q-2 95 -2 145q0 66 -20 97q-23 35 -85 50q-32 8 -63 8q-27 0 -66 -10q0 -10 -2 -47q-2 -29 -2 -46q0 -191 7 -339q-76 -2 -133 -4q7 102 7 197q0 181 -9 315q138 22 215 22q242 0 264 -158q5 -38 5 -114q0 -144 7 -239q-44 -11 -121 -38z" />
    <glyph glyph-name="o" unicode="o" horiz-adv-x="598" 
d="M309 -13q-125 0 -198 91q-66 82 -66 202q0 247 277 247q122 0 188 -65t66 -182q0 -124 -66 -204q-72 -89 -201 -89zM312 443q-144 0 -144 -166q0 -81 31 -138q37 -69 107 -69q74 0 114 64q34 55 34 137q0 87 -28 126q-33 46 -114 46z" />
    <glyph glyph-name="p" unicode="p" horiz-adv-x="624" 
d="M257 2l-36 32q0 -62 6 -203l-137 -36q13 119 13 284q0 295 -13 419q140 29 196 29q14 0 41 -1h42q101 0 165 -67q61 -65 61 -162q0 -132 -101 -215q-96 -79 -237 -80zM268 438q-23 0 -46 -3q-3 -84 -3 -143v-121q0 -29 2 -83h34q95 0 154.5 56.5t59.5 146.5q0 88 -55 121
q-43 26 -146 26z" />
    <glyph glyph-name="q" unicode="q" horiz-adv-x="617" 
d="M582 98l-45 -35q-1 -86 -1 -229q-56 -12 -125 -40l2 35q6 102 7 194q-55 -29 -145 -29q-105 0 -169 77q-58 70 -58 171q0 141 103 215q91 66 240 66q25 0 156 -3q-4 -84 -10 -347l46 38zM387 435q-217 0 -217 -203q0 -64 36 -103t101 -39q64 0 111 28l4 317h-35z" />
    <glyph glyph-name="r" unicode="r" horiz-adv-x="385" 
d="M376 410q-103 1 -142 -49q-33 -42 -33 -140q0 -103 4 -219q-40 -3 -128 -11q8 137 8 255q0 147 -16 256q49 9 127 20q2 -62 3 -83q1 1 18 32q13 24 25 29q50 22 149 20z" />
    <glyph glyph-name="s" unicode="s" horiz-adv-x="479" 
d="M224 -9q-114 0 -181 9l9 103q80 -22 172 -22q104 0 104 66q0 36 -74 59q-102 31 -131 49q-63 39 -63 117q0 152 253 152q57 0 112 -4l-9 -103q-35 3 -81 13q-40 9 -62 9q-96 0 -96 -58q0 -32 76 -54q102 -29 133 -49q65 -40 65 -119q0 -86 -76 -131q-62 -37 -151 -37z
" />
    <glyph glyph-name="t" unicode="t" horiz-adv-x="343" 
d="M341 442l-104 -11q-1 -139 -13 -429l-104 -10q-5 146 -11 430l-111 -13q18 38 32 88l81 18q0 63 -2 112q42 10 140 36q-10 -83 -12 -131l114 20q-3 -41 -10 -110z" />
    <glyph glyph-name="u" unicode="u" horiz-adv-x="606" 
d="M458 -13l-24 36q-71 -36 -175 -36q-97 0 -143 54q-36 43 -44 126q-2 25 -2 145q0 117 -8 200q79 3 137 7q-11 -107 -11 -282q0 -79 16 -113q22 -48 86 -48q76 0 123 32q2 120 2 194q0 110 -6 211l129 4q-6 -171 -6 -343q0 -77 23 -146z" />
    <glyph glyph-name="v" unicode="v" horiz-adv-x="489" 
d="M319 2q-46 -3 -144 -10q-42 150 -172 507q60 11 137 33q69 -269 115 -404q65 187 120 395q39 -5 134 -12q-103 -250 -190 -509z" />
    <glyph glyph-name="w" unicode="w" horiz-adv-x="799" 
d="M639 2q-44 -3 -142 -10q-30 181 -83 371q-28 -89 -55 -177q-33 -107 -52 -187q-40 -1 -153 -6q-32 130 -145 516q62 6 135 16l14 -100q13 -83 76 -299q78 232 108 375q61 4 151 7q6 -27 95 -386q39 82 66.5 194t29.5 203q58 -7 138 -14q-55 -260 -183 -503z" />
    <glyph glyph-name="x" unicode="x" horiz-adv-x="496" 
d="M369 -11q-62 124 -115 194l-110 -184q-46 0 -143 -3q134 176 197 265q-49 72 -159 237q65 9 142 29q29 -60 88 -172q68 96 95 169q56 -10 147 -22q-121 -136 -187 -232q58 -81 186 -263q-83 -7 -141 -18z" />
    <glyph glyph-name="y" unicode="y" horiz-adv-x="489" 
d="M353 42q-86 -188 -216 -240l-52 34q88 90 130 177q-32 92 -98 238q-89 194 -111 247q79 15 139 33q27 -90 129 -379q60 142 110 363q86 0 147 1q-109 -323 -178 -474z" />
    <glyph glyph-name="z" unicode="z" horiz-adv-x="479" 
d="M202 88q58 -2 256 0l-16 -97q-81 6 -201 7q-172 2 -202 3l-4 62q86 123 252 372q-71 -2 -234 -6l17 85q260 0 409 2q-31 -45 -277 -428z" />
    <glyph glyph-name="braceleft" unicode="{" horiz-adv-x="380" 
d="M357 684q-62 -18 -86 -60q-20 -34 -20 -99q0 -16 1.5 -46.5t1.5 -45.5q0 -62 -12 -92q-15 -38 -63 -72q47 -36 61 -73q11 -30 11 -99q0 -14 -1 -42v-42q0 -77 11 -101q18 -39 89 -59l1 -56q-107 4 -147 25q-55 30 -62 119q-2 34 -1 85q2 83 2 84q0 54 -12 80
q-15 37 -60 51l1 55q49 15 65 64q9 27 9 86q0 16 -1 47t-1 46q0 116 41 154t172 47v-56z" />
    <glyph glyph-name="bar" unicode="|" horiz-adv-x="245" 
d="M163 -215h-85l1 959h86z" />
    <glyph glyph-name="braceright" unicode="}" horiz-adv-x="376" 
d="M308 240q-49 -14 -66 -64q-10 -31 -10 -89q0 -15 1.5 -45.5t1.5 -46.5q0 -112 -42 -153q-45 -44 -172 -45l1 56q66 18 86 50q16 25 18 97q1 25 0 62q-1 49 -1 50q0 59 15.5 91.5t60.5 64.5q-47 35 -61 71q-12 29 -12 91q0 17 1 51.5t1 51.5q0 70 -15 96q-19 36 -86 54v57
q126 -5 166 -40q44 -37 44 -147q0 -21 -1.5 -62.5t-1.5 -62.5q0 -56 11 -82q16 -37 62 -51z" />
    <glyph glyph-name="asciitilde" unicode="~" horiz-adv-x="540" 
d="M370 198q-42 0 -107.5 38t-101.5 38q-24 0 -55 -31q-9 -8 -43 -50l-45 89q65 97 143 97q44 0 113.5 -38.5t100.5 -38.5q22 0 49 23q13 11 50 52l43 -88q-72 -91 -147 -91z" />
    <glyph glyph-name="nonbreakingspace" unicode="&#xa0;" horiz-adv-x="296" 
 />
    <glyph glyph-name="exclamdown" unicode="&#xa1;" horiz-adv-x="286" 
d="M183 617l-148 -2l4 124l149 1zM28 -6q30 336 34 519l100 4q0 -356 9 -510q-69 -8 -143 -13z" />
    <glyph glyph-name="cent" unicode="&#xa2;" horiz-adv-x="513" 
d="M472 30q-65 -40 -163 -40q-17 0 -36 1q-6 -25 -18 -79h-13q-30 0 -70 2q21 63 31 95q-143 84 -143 245q0 121 77.5 196t202.5 77l15 70q28 -1 91 0q-22 -48 -34 -82q39 -14 71 -29q-5 -27 -17 -100l-75 45l-97 -353h35q61 0 157 59q-4 -71 -14 -107zM172 258
q0 -95 52 -155l92 336q-144 -50 -144 -181z" />
    <glyph glyph-name="sterling" unicode="&#xa3;" horiz-adv-x="512" 
d="M480 543q-93 40 -145 40q-74 0 -104 -40q-28 -35 -28 -111q0 -16 2 -61q83 1 238 5q-13 -44 -16 -82q-37 0 -116 1h-105q-6 -101 -36 -212h99q113 0 217 6l-3 -93q-46 0 -145 1q-89 1 -133 1q-76 0 -173 -4q48 145 59 301l-74 -3l3 81l70 -2q-2 54 -2 67q0 232 232 232
q74 0 168 -32q-3 -27 -8 -95z" />
    <glyph glyph-name="currency" unicode="&#xa4;" horiz-adv-x="714" 
d="M595 479q48 -79 48 -145q0 -73 -52 -156l78 -75l-70 -64l-79 75q-82 -48 -155 -48q-72 0 -159 48l-78 -73l-68 64l79 74q-48 78 -48 147q0 73 51 153l-77 73l69 64l77 -72q84 47 160 47q72 0 155 -47l78 73l70 -65zM370 506q-80 0 -134.5 -51t-54.5 -127q0 -73 53.5 -125
t130.5 -52q79 0 133 52.5t54 129.5q0 73 -53 123t-129 50z" />
    <glyph glyph-name="yen" unicode="&#xa5;" horiz-adv-x="580" 
d="M412 388q40 1 108 3l-24 -77q-42 -1 -120 -3q-14 -26 -31 -71q71 0 170 3q-14 -48 -20 -81q-35 2 -60 2h-80q0 -92 3 -166q-79 0 -133 -3q5 88 6 169q-42 0 -144 -1l9 78q93 0 149 -1q-18 37 -37 71q-66 0 -119 -1q5 45 8 78l70 -1q-83 143 -160 269q90 5 142 8
q66 -131 154 -294q97 166 158 288q45 0 127 5q-101 -168 -176 -275z" />
    <glyph glyph-name="section" unicode="&#xa7;" horiz-adv-x="534" 
d="M415 149q63 -60 63 -115q0 -86 -73 -130q-60 -36 -149 -36q-86 0 -185 45q3 46 3 114q113 -69 176 -69q44 0 73 16q33 18 33 51q0 38 -91 79q-119 54 -146 72q-78 54 -78 132t93 144q-50 55 -50 106q0 80 69 122q57 36 140 36q66 0 168 -34q-5 -40 -10 -106
q-99 46 -152 46q-97 0 -97 -61q0 -31 79 -67q122 -57 147 -74q80 -53 80 -125q0 -73 -93 -146zM323 350q-43 20 -114 53q-60 -39 -60 -81q0 -28 37 -52q10 -7 63 -33l89 -43q58 40 58 80q0 35 -73 76z" />
    <glyph glyph-name="dieresis" unicode="&#xa8;" horiz-adv-x="537" 
d="M448 643q-36 -36 -138 -57l-16 90q58 31 166 92q-4 -67 -12 -125zM253 642q-36 -36 -138 -57l-16 90q58 30 166 92q-4 -67 -12 -125z" />
    <glyph glyph-name="copyright" unicode="&#xa9;" horiz-adv-x="890" 
d="M458 5q-152 0 -260 90q-114 95 -114 240q0 154 113 250q107 93 269 93q155 0 261 -87q112 -91 112 -239q0 -149 -114 -250q-111 -97 -267 -97zM466 626q-132 0 -226 -81t-94 -207q0 -123 95 -204q91 -77 221 -77q128 0 222.5 84.5t94.5 205.5q0 122 -93 202
q-90 77 -220 77zM467 115q-103 0 -174 63.5t-71 161.5q0 100 71.5 165.5t175.5 65.5q111 0 207 -96l-76 -67q-72 67 -128 67q-61 0 -101 -38t-40 -97q0 -54 39.5 -91.5t96.5 -37.5q61 0 132 64l78 -63q-105 -97 -210 -97z" />
    <glyph glyph-name="ordfeminine" unicode="&#xaa;" horiz-adv-x="355" 
d="M208 334l-1 20q-41 -24 -81 -24q-49 0 -79 33t-30 79q0 69 68 101q35 17 127 31q-6 57 -44 57q-36 0 -115 -34q3 37 3 64q75 25 119 25q70 0 97 -41q19 -29 19 -92q0 -11 -1 -33v-33q0 -79 4 -150q-37 0 -86 -3zM184 509q-86 -19 -86 -68q0 -20 15 -33.5t37 -13.5
q26 0 62 23v98q-9 -2 -28 -6z" />
    <glyph glyph-name="guillemotleft" unicode="&#xab;" horiz-adv-x="509" 
d="M342 273q26 -47 114 -203h-104q-39 79 -111 199q56 103 102 197h117q-72 -103 -118 -193zM156 67q-60 124 -105 197q36 65 106 203q44 -1 102 0l-109 -199q28 -54 113 -200q-68 0 -107 -1z" />
    <glyph glyph-name="logicalnot" unicode="&#xac;" horiz-adv-x="714" 
d="M720 -2h-92l3 255h-602l2 87h691z" />
    <glyph glyph-name="registered" unicode="&#xae;" horiz-adv-x="890" 
d="M459 0q-160 0 -270 90q-117 95 -117 246q0 155 117 253q112 94 274 94q157 0 268 -91q117 -95 117 -244q0 -155 -116 -254q-111 -94 -273 -94zM465 631q-135 0 -230 -81q-98 -84 -98 -212q0 -125 97 -207q94 -80 226 -80q136 0 230.5 82.5t94.5 210.5q0 126 -95 208
q-92 79 -225 79zM535 126q-10 26 -17 55q-6 35 -13 71q-8 29 -28 41q-23 13 -79 15l-2 -182h-112l4 434h191q170 0 170 -120q0 -64 -68 -96q22 -18 30 -36q4 -12 9 -45q10 -62 39 -137h-124zM473 476h-72l-1 -81h60q35 0 50 4q27 9 27 37q0 26 -21 35q-12 5 -43 5z" />
    <glyph glyph-name="macron" unicode="&#xaf;" horiz-adv-x="312" 
d="M317 571q-67 5 -134 5q-29 0 -90 -1q-71 -1 -102 -1q4 45 6 110q82 -4 127 -4h97q18 0 108 7z" />
    <glyph glyph-name="macron" unicode="&#x2c9;" horiz-adv-x="312" 
d="M317 571q-67 5 -134 5q-29 0 -90 -1q-71 -1 -102 -1q4 45 6 110q82 -4 127 -4h97q18 0 108 7z" />
    <glyph glyph-name="degree" unicode="&#xb0;" horiz-adv-x="377" 
d="M173 398q-70 0 -124 48.5t-54 115.5q0 68 54.5 117.5t125.5 49.5q70 0 124.5 -47.5t54.5 -115.5q0 -69 -55 -118.5t-126 -49.5zM175 658q-38 0 -65.5 -28t-27.5 -66q0 -37 28 -66t66 -29q37 0 64 28.5t27 65.5t-27.5 66t-64.5 29z" />
    <glyph glyph-name="plusminus" unicode="&#xb1;" horiz-adv-x="714" 
d="M638 360h-226l-2 -211h-102l2 211h-223v86h223l5 202h101l-2 -202h226zM665 -2h-605l-1 85h608z" />
    <glyph glyph-name="acute" unicode="&#xb4;" horiz-adv-x="261" 
d="M134 621l-87 1q52 90 65 165l137 -1q-22 -77 -115 -165z" />
    <glyph glyph-name="mu" unicode="&#xb5;" 
d="M557 238q0 -113 5 -232q-72 -2 -126 -5l4 44q-60 -54 -113 -54q-37 0 -112 35l-1 -77q0 -55 5 -148l-130 -3q10 180 10 432q0 147 -5 282q64 2 128 7q-9 -229 -9 -304q0 -132 112 -132q71 0 97 48q20 36 20 117q0 128 -7 265q54 1 128 5q-6 -157 -6 -280z" />
    <glyph glyph-name="mu" unicode="&#x3bc;" 
d="M557 238q0 -113 5 -232q-72 -2 -126 -5l4 44q-60 -54 -113 -54q-37 0 -112 35l-1 -77q0 -55 5 -148l-130 -3q10 180 10 432q0 147 -5 282q64 2 128 7q-9 -229 -9 -304q0 -132 112 -132q71 0 97 48q20 36 20 117q0 128 -7 265q54 1 128 5q-6 -157 -6 -280z" />
    <glyph glyph-name="paragraph" unicode="&#xb6;" horiz-adv-x="711" 
d="M550 624l-6 -780h-69l7 780h-138l-8 -780h-66l3 463q-158 39 -158 181q0 97 69 149q63 48 163 48h238l1 -61h-36z" />
    <glyph glyph-name="periodcentered" unicode="&#xb7;" horiz-adv-x="246" 
d="M51 198q3 56 1 143q66 2 131 8q0 -92 1 -146q-79 -2 -133 -5z" />
    <glyph glyph-name="periodcentered" unicode="&#x2219;" horiz-adv-x="246" 
d="M51 198q3 56 1 143q66 2 131 8q0 -92 1 -146q-79 -2 -133 -5z" />
    <glyph glyph-name="cedilla" unicode="&#xb8;" horiz-adv-x="312" 
d="M197 -154q-55 1 -123 0q32 56 87 169q34 -1 90 -1q-19 -55 -54 -168z" />
    <glyph glyph-name="ordmasculine" unicode="&#xba;" horiz-adv-x="401" 
d="M188 341q-81 0 -124.5 43.5t-43.5 120.5q0 78 47.5 123t128.5 45q80 0 121 -43.5t41 -119.5q0 -78 -44.5 -123.5t-125.5 -45.5zM191 615q-84 0 -84 -118q0 -99 81 -99q82 0 82 109q0 108 -79 108z" />
    <glyph glyph-name="guillemotright" unicode="&#xbb;" horiz-adv-x="506" 
d="M355 67q-38 1 -102 1q61 108 110 197q-35 67 -113 203q63 -1 109 0q41 -81 105 -198q-59 -97 -109 -203zM169 67q-40 1 -109 1q64 104 110 192q-10 20 -119 205q70 0 108 1q48 -91 113 -200q-68 -128 -103 -199z" />
    <glyph glyph-name="questiondown" unicode="&#xbf;" horiz-adv-x="447" 
d="M321 619l-149 -1l1 122l148 3v-124zM413 44l-7 -8q-72 -41 -157 -41q-94 0 -152 48q-62 52 -62 142q0 64 40 132q39 58 77 117q25 42 37 90q60 0 107 2q-9 -52 -29 -95q-12 -24 -51 -85q-58 -92 -58 -145q0 -51 32 -80.5t85 -29.5q60 0 169 78q-22 -85 -31 -125z" />
    <glyph glyph-name="Agrave" unicode="&#xc0;" horiz-adv-x="646" 
d="M527 -8q-21 77 -63 223q-159 -24 -176 -24q-18 0 -80 12q-37 -106 -65 -201q-43 -2 -139 -9q18 44 116 296q48 123 144 379q56 8 176 20q27 -99 112 -342l119 -342q-67 -6 -144 -12zM346 562l-105 -270h195zM332 721q-91 79 -109 163l134 3q7 -61 58 -167z" />
    <glyph glyph-name="Aacute" unicode="&#xc1;" horiz-adv-x="646" 
d="M527 -8q-21 77 -63 223q-159 -24 -176 -24q-18 0 -80 12q-37 -106 -65 -201q-43 -2 -139 -9q18 44 116 296q48 123 144 379q56 8 176 20q27 -99 112 -342l119 -342q-67 -6 -144 -12zM346 562l-105 -270h195zM371 710l-86 1q51 90 65 165l136 -1q-22 -77 -115 -165z" />
    <glyph glyph-name="Acircumflex" unicode="&#xc2;" horiz-adv-x="646" 
d="M527 -8q-21 77 -63 223q-159 -24 -176 -24q-18 0 -80 12q-37 -106 -65 -201q-43 -2 -139 -9q18 44 116 296q48 123 144 379q56 8 176 20q27 -99 112 -342l119 -342q-67 -6 -144 -12zM346 562l-105 -270h195zM433 716l-69 78l-81 -72l-121 -7l156 156l98 6l138 -152z" />
    <glyph glyph-name="Atilde" unicode="&#xc3;" horiz-adv-x="646" 
d="M527 -8q-21 77 -63 223q-159 -24 -176 -24q-18 0 -80 12q-37 -106 -65 -201q-43 -2 -139 -9q18 44 116 296q48 123 144 379q56 8 176 20q27 -99 112 -342l119 -342q-67 -6 -144 -12zM346 562l-105 -270h195zM532 750q-62 -30 -98 -30q-26 0 -76 28t-80 28q-17 0 -47 -19
q-20 -14 -41 -28v29v31q1 20 1 34q31 58 89 58q29 0 79 -28t78 -28q20 0 56 19l52 30q-4 -44 -13 -124z" />
    <glyph glyph-name="Adieresis" unicode="&#xc4;" horiz-adv-x="646" 
d="M527 -8q-21 77 -63 223q-159 -24 -176 -24q-18 0 -80 12q-37 -106 -65 -201q-43 -2 -139 -9q18 44 116 296q48 123 144 379q56 8 176 20q27 -99 112 -342l119 -342q-67 -6 -144 -12zM346 562l-105 -270h195zM541 775q-35 -36 -137 -57l-17 90q59 31 167 92
q-4 -67 -13 -125zM346 774q-35 -36 -137 -57l-17 90q58 30 167 92q-4 -67 -13 -125z" />
    <glyph glyph-name="Aring" unicode="&#xc5;" horiz-adv-x="662" 
d="M527 -8q-21 77 -63 223q-159 -24 -176 -24q-18 0 -80 12q-37 -106 -65 -201q-43 -2 -139 -9q18 44 116 296q48 123 144 379q56 8 176 20q27 -99 112 -342l119 -342q-67 -6 -144 -12zM346 562l-105 -270h195zM344 698q-50 0 -85 29.5t-35 78.5q0 50 39 80q35 26 85 26
q51 0 84 -24q39 -27 39 -77t-38 -81.5t-89 -31.5zM347 857q-22 0 -37 -14.5t-15 -36.5q0 -21 15.5 -34.5t37.5 -13.5q52 0 52 49q0 50 -53 50z" />
    <glyph glyph-name="AE" unicode="&#xc6;" horiz-adv-x="912" 
d="M846 6q-142 -5 -436 -11q4 86 8 208h-192q-28 -65 -83 -204q-39 -2 -136 -5q45 103 130 298q42 95 85 190q49 113 81 200q275 0 564 6q-10 -51 -16 -99q-182 3 -198 3q-62 0 -102 -1q-2 -73 -4 -191q91 0 289 4l-11 -75l-112 -16q-64 -10 -104 -10q-1 0 -63 6v-221
q101 2 324 9q-13 -46 -24 -91zM413 597h-15l-131 -307h43q36 0 106 2q2 58 2 79q0 36 -3 113q-2 74 -2 113z" />
    <glyph glyph-name="Ccedilla" unicode="&#xc7;" horiz-adv-x="657" 
d="M564 498q-21 58 -47 83t-73 25q-179 0 -229 -126q-15 -37 -15 -111q0 -129 49 -204q58 -90 178 -90q99 0 201 63l-6 -116q-93 -33 -180 -37q-14 -37 -40 -123q-56 2 -123 0q23 42 67 127q-147 22 -224 137q-69 102 -69 252q0 154 109 241q100 80 262 80q95 0 188 -30
l38 -131z" />
    <glyph glyph-name="Egrave" unicode="&#xc8;" horiz-adv-x="566" 
d="M83 -2q14 190 14 420q0 36 -6 194l56 73l376 3l-11 -92l-279 -8q-3 -74 -5 -186q155 0 254 2l-9 -88l-200 -16q-15 0 -47 7v-30q0 -35 1 -85q2 -67 2 -85q197 -14 294 -11l9 -90q-147 -4 -449 -8zM311 718q-91 80 -108 164l134 3q7 -62 57 -167h-83z" />
    <glyph glyph-name="Eacute" unicode="&#xc9;" horiz-adv-x="566" 
d="M83 -2q14 190 14 420q0 36 -6 194l56 73l376 3l-11 -92l-279 -8q-3 -74 -5 -186q155 0 254 2l-9 -88l-200 -16q-15 0 -47 7v-30q0 -35 1 -85q2 -67 2 -85q197 -14 294 -11l9 -90q-147 -4 -449 -8zM329 713l-87 1q52 90 66 165h136q-22 -78 -115 -166z" />
    <glyph glyph-name="Ecircumflex" unicode="&#xca;" horiz-adv-x="567" 
d="M83 -2q14 190 14 420q0 36 -6 194l56 73l376 3l-11 -92l-279 -8q-3 -74 -5 -186q155 0 254 2l-9 -88l-200 -16q-15 0 -47 7v-30q0 -35 1 -85q2 -67 2 -85q197 -14 294 -11l9 -90q-147 -4 -449 -8zM394 716l-68 78l-82 -72l-120 -7l156 156l98 6l137 -152z" />
    <glyph glyph-name="Edieresis" unicode="&#xcb;" horiz-adv-x="563" 
d="M83 -2q14 190 14 420q0 36 -6 194l56 73l376 3l-11 -92l-279 -8q-3 -74 -5 -186q155 0 254 2l-9 -88l-200 -16q-15 0 -47 7v-30q0 -35 1 -85q2 -67 2 -85q197 -14 294 -11l9 -90q-147 -4 -449 -8zM491 771q-35 -37 -137 -57l-17 90q59 30 167 91q-4 -67 -13 -124z
M296 770q-35 -37 -137 -57l-17 90q58 30 167 91q-4 -67 -13 -124z" />
    <glyph glyph-name="Igrave" unicode="&#xcc;" horiz-adv-x="286" 
d="M223 190q0 -92 4 -189q-2 0 -127 -9q2 77 2 144q0 86 -4 224q-5 181 -6 224l-23 17l-10 83l178 9q-14 -376 -14 -503zM156 722q-91 80 -108 164l134 2q7 -61 57 -166h-83z" />
    <glyph glyph-name="Iacute" unicode="&#xcd;" horiz-adv-x="294" 
d="M223 190q0 -92 4 -189q-2 0 -127 -9q2 77 2 144q0 86 -4 224q-5 181 -6 224l-23 17l-10 83l178 9q-14 -376 -14 -503zM182 714l-87 1q52 89 65 164h136q-21 -78 -114 -165z" />
    <glyph glyph-name="Icircumflex" unicode="&#xce;" horiz-adv-x="290" 
d="M223 190q0 -92 4 -189q-2 0 -127 -9q2 77 2 144q0 86 -4 224q-5 181 -6 224l-23 17l-10 83l178 9q-14 -376 -14 -503zM224 716l-68 78l-81 -72l-121 -7l156 156l98 6l137 -152z" />
    <glyph glyph-name="Idieresis" unicode="&#xcf;" horiz-adv-x="289" 
d="M223 190q0 -92 4 -189q-2 0 -127 -9q2 77 2 144q0 86 -4 224q-5 181 -6 224l-23 17l-10 83l178 9q-14 -376 -14 -503zM330 780q-35 -37 -137 -57l-17 90q59 30 167 91q-4 -67 -13 -124zM135 779q-35 -37 -137 -57l-17 90q58 30 167 91q-4 -67 -13 -124z" />
    <glyph glyph-name="Ntilde" unicode="&#xd1;" horiz-adv-x="757" 
d="M674 14q-35 -7 -109 -17q-68 144 -222 363q-43 63 -136 186q2 -178 14 -548q-61 0 -132 -4q10 224 10 407q0 90 -5 267l165 18q62 -76 124 -169q121 -183 178 -283q-4 260 -16 451q67 0 139 3q-14 -470 -10 -674zM560 747q-62 -30 -99 -30q-25 0 -75.5 28t-79.5 28
q-17 0 -47 -19q-20 -14 -41 -28v29v30v35q31 58 89 58q30 0 79.5 -28t78.5 -28q19 0 56 19q26 15 51 30q-4 -44 -12 -124z" />
    <glyph glyph-name="Ograve" unicode="&#xd2;" horiz-adv-x="801" 
d="M397 -19q-167 0 -256 115q-77 102 -77 265q0 164 86.5 251t257.5 87q93 0 169 -37q85 -41 124 -118q30 -58 30 -168q0 -158 -80 -269q-92 -126 -254 -126zM567 518q-51 90 -161 90q-62 0 -111.5 -31.5t-71.5 -86.5q-12 -29 -12 -101q0 -139 29 -210q43 -106 156 -106
q103 0 154 93q41 75 41 191q0 119 -24 161zM377 723q-91 80 -108 164l134 2q7 -61 57 -166h-83z" />
    <glyph glyph-name="Oacute" unicode="&#xd3;" horiz-adv-x="801" 
d="M397 -19q-167 0 -256 115q-77 102 -77 265q0 164 86.5 251t257.5 87q93 0 169 -37q85 -41 124 -118q30 -58 30 -168q0 -158 -80 -269q-92 -126 -254 -126zM567 518q-51 90 -161 90q-62 0 -111.5 -31.5t-71.5 -86.5q-12 -29 -12 -101q0 -139 29 -210q43 -106 156 -106
q103 0 154 93q41 75 41 191q0 119 -24 161zM433 712l-87 1q52 89 66 164h136q-22 -78 -115 -165z" />
    <glyph glyph-name="Ocircumflex" unicode="&#xd4;" horiz-adv-x="801" 
d="M397 -19q-167 0 -256 115q-77 102 -77 265q0 164 86.5 251t257.5 87q93 0 169 -37q85 -41 124 -118q30 -58 30 -168q0 -158 -80 -269q-92 -126 -254 -126zM567 518q-51 90 -161 90q-62 0 -111.5 -31.5t-71.5 -86.5q-12 -29 -12 -101q0 -139 29 -210q43 -106 156 -106
q103 0 154 93q41 75 41 191q0 119 -24 161zM488 716l-68 78l-82 -72l-120 -7l155 156l99 6l137 -152z" />
    <glyph glyph-name="Otilde" unicode="&#xd5;" horiz-adv-x="801" 
d="M397 -19q-167 0 -256 115q-77 102 -77 265q0 164 86.5 251t257.5 87q93 0 169 -37q85 -41 124 -118q30 -58 30 -168q0 -158 -80 -269q-92 -126 -254 -126zM567 518q-51 90 -161 90q-62 0 -111.5 -31.5t-71.5 -86.5q-12 -29 -12 -101q0 -139 29 -210q43 -106 156 -106
q103 0 154 93q41 75 41 191q0 119 -24 161zM578 747q-62 -31 -99 -31q-25 0 -75.5 28t-79.5 28q-17 0 -47 -18q-20 -15 -41 -29v29v32v34q31 58 89 58q30 0 80 -28t78 -28q19 0 56 19q26 14 51 29q-4 -43 -12 -123z" />
    <glyph glyph-name="Odieresis" unicode="&#xd6;" horiz-adv-x="800" 
d="M397 -19q-167 0 -255 115q-78 102 -78 265q0 164 87 251t257 87q94 0 170 -37q84 -41 123 -118q30 -58 30 -168q0 -158 -80 -269q-91 -126 -254 -126zM568 518q-52 90 -161 90q-62 0 -112 -31.5t-71 -86.5q-12 -29 -12 -101q0 -139 28 -210q43 -106 156 -106
q104 0 154 93q41 75 41 191q0 119 -23 161zM585 776q-36 -37 -138 -57l-16 90q58 30 167 91q-4 -67 -13 -124zM390 775q-36 -37 -138 -57l-16 90q58 30 167 91q-4 -67 -13 -124z" />
    <glyph glyph-name="Oslash" unicode="&#xd8;" horiz-adv-x="783" 
d="M688 554q50 -103 50 -204q0 -161 -79 -258q-87 -108 -253 -108q-131 0 -236 79q-43 -41 -96 -95l-45 71q43 35 93 81q-56 106 -56 218q0 365 337 365q90 0 136 -18q40 -15 106 -72q41 37 86 83l59 -53zM408 612q-204 0 -204 -259q0 -95 17 -143l336 321q-48 81 -149 81z
M594 463l-336 -319q46 -71 143 -71q110 0 162 90q43 73 43 194q0 60 -12 106z" />
    <glyph glyph-name="Ugrave" unicode="&#xd9;" horiz-adv-x="736" 
d="M668 366q-14 -145 -23 -183q-21 -95 -74 -142q-65 -57 -191 -57q-127 0 -192 50q-68 52 -86 171q-13 82 -15 228q-3 168 -9 238q64 9 150 18l-1 -233q0 -154 9 -226q11 -80 40 -114q35 -41 111 -41q77 0 110 44q27 35 38 119q19 146 19 319q0 56 -2 128q62 -1 148 -8z
M383 720q-91 79 -108 163l134 3q7 -61 57 -167z" />
    <glyph glyph-name="Uacute" unicode="&#xda;" horiz-adv-x="736" 
d="M668 366q-14 -145 -23 -183q-21 -95 -74 -142q-65 -57 -191 -57q-127 0 -192 50q-68 52 -86 171q-13 82 -15 228q-3 168 -9 238q64 9 150 18l-1 -233q0 -154 9 -226q11 -80 40 -114q35 -41 111 -41q77 0 110 44q27 35 38 119q19 146 19 319q0 56 -2 128q62 -1 148 -8z
M404 712l-87 1q52 90 65 165l136 -1q-21 -77 -114 -165z" />
    <glyph glyph-name="Ucircumflex" unicode="&#xdb;" horiz-adv-x="736" 
d="M668 366q-14 -145 -23 -183q-21 -95 -74 -142q-65 -57 -191 -57q-127 0 -192 50q-68 52 -86 171q-13 82 -15 228q-3 168 -9 238q64 9 150 18l-1 -233q0 -154 9 -226q11 -80 40 -114q35 -41 111 -41q77 0 110 44q27 35 38 119q19 146 19 319q0 56 -2 128q62 -1 148 -8z
M464 716l-69 78l-81 -72l-121 -7l156 156l98 6l138 -152z" />
    <glyph glyph-name="Udieresis" unicode="&#xdc;" horiz-adv-x="736" 
d="M668 366q-14 -145 -23 -183q-21 -95 -74 -142q-65 -57 -191 -57q-127 0 -192 50q-68 52 -86 171q-13 82 -15 228q-3 168 -9 238q64 9 150 18l-1 -233q0 -154 9 -226q11 -80 40 -114q35 -41 111 -41q77 0 110 44q27 35 38 119q19 146 19 319q0 56 -2 128q62 -1 148 -8z
M575 778q-36 -36 -138 -57l-16 90q58 30 167 91q-4 -66 -13 -124zM380 777q-36 -36 -138 -57l-16 90q58 30 167 91q-4 -66 -13 -124z" />
    <glyph glyph-name="germandbls" unicode="&#xdf;" horiz-adv-x="626" 
d="M390 -9q-33 0 -87 19v96q53 -27 81 -27q37 0 62 19.5t25 51.5q0 33 -50 78q-47 37 -93 75q-50 42 -50 67q0 17 34 53q51 54 63 71q34 47 34 90q0 42 -25 67.5t-66 25.5q-77 0 -101 -74q-13 -39 -13 -136v-93q0 -224 8 -375q-83 -2 -138 -5q11 113 13 264q1 125 2 251
q1 87 16 129q24 63 94 98q53 26 127 26q80 0 135 -33q69 -40 69 -117q0 -49 -32 -101q-20 -32 -60 -76q-33 -34 -33 -41q0 -12 48 -47q62 -46 88 -76q47 -54 47 -113q0 -78 -61 -125q-55 -42 -137 -42z" />
    <glyph glyph-name="agrave" unicode="&#xe0;" horiz-adv-x="541" 
d="M416 -15q-10 13 -29 40q-77 -40 -194 -40q-77 0 -121 57q-37 50 -37 124q0 114 112 162q61 26 212 42q-3 39 -23 53.5t-67 14.5q-69 0 -167 -39q9 52 13 107q58 18 142 18h35q86 0 129.5 -34.5t53.5 -116.5q2 -16 11 -176q6 -104 29 -175zM359 288q-103 -15 -126 -22
q-74 -25 -74 -84q0 -44 18 -74q19 -35 54 -35q89 0 141 34zM283 573q-91 80 -109 164l134 2q7 -61 58 -166h-83z" />
    <glyph glyph-name="aacute" unicode="&#xe1;" horiz-adv-x="541" 
d="M416 -15q-10 13 -29 40q-77 -40 -194 -40q-77 0 -121 57q-37 50 -37 124q0 114 112 162q61 26 212 42q-3 39 -23 53.5t-67 14.5q-69 0 -167 -39q9 52 13 107q58 18 142 18h35q86 0 129.5 -34.5t53.5 -116.5q2 -16 11 -176q6 -104 29 -175zM359 288q-103 -15 -126 -22
q-74 -25 -74 -84q0 -44 18 -74q19 -35 54 -35q89 0 141 34zM310 566l-86 1q51 90 65 164h136q-22 -77 -115 -165z" />
    <glyph glyph-name="acircumflex" unicode="&#xe2;" horiz-adv-x="556" 
d="M416 -15q-10 13 -29 40q-77 -40 -194 -40q-77 0 -121 57q-37 50 -37 124q0 114 112 162q61 26 212 42q-3 39 -23 53.5t-67 14.5q-69 0 -167 -39q9 52 13 107q58 18 142 18h35q86 0 129.5 -34.5t53.5 -116.5q2 -16 11 -176q6 -104 29 -175zM359 288q-103 -15 -126 -22
q-74 -25 -74 -84q0 -44 18 -74q19 -35 54 -35q89 0 141 34zM351 565l-68 78l-82 -72l-120 -7l156 156l98 5l137 -151z" />
    <glyph glyph-name="atilde" unicode="&#xe3;" horiz-adv-x="556" 
d="M416 -15q-10 13 -29 40q-77 -40 -194 -40q-77 0 -121 57q-37 50 -37 124q0 114 112 162q61 26 212 42q-3 39 -23 53.5t-67 14.5q-69 0 -167 -39q9 52 13 107q58 18 142 18h35q86 0 129.5 -34.5t53.5 -116.5q2 -16 11 -176q6 -104 29 -175zM359 288q-103 -15 -126 -22
q-74 -25 -74 -84q0 -44 18 -74q19 -35 54 -35q89 0 141 34zM460 601q-61 -30 -98 -30q-26 0 -76 28t-79 28q-17 0 -47 -19q-21 -14 -41 -28v29v32v33q31 58 89 58q29 0 79 -28t79 -28q19 0 56 19q26 15 51 30q-4 -44 -13 -124z" />
    <glyph glyph-name="adieresis" unicode="&#xe4;" horiz-adv-x="541" 
d="M416 -15q-10 13 -29 40q-77 -40 -194 -40q-77 0 -121 57q-37 50 -37 124q0 114 112 162q61 26 212 42q-3 39 -23 53.5t-67 14.5q-69 0 -167 -39q9 52 13 107q58 18 142 18h35q86 0 129.5 -34.5t53.5 -116.5q2 -16 11 -176q6 -104 29 -175zM359 288q-103 -15 -126 -22
q-74 -25 -74 -84q0 -44 18 -74q19 -35 54 -35q89 0 141 34zM456 643q-36 -36 -138 -57l-16 90q58 31 166 92q-4 -67 -12 -125zM261 642q-36 -36 -138 -57l-16 90q58 30 166 92q-4 -67 -12 -125z" />
    <glyph glyph-name="aring" unicode="&#xe5;" horiz-adv-x="541" 
d="M416 -15q-10 13 -29 40q-77 -40 -194 -40q-77 0 -121 57q-37 50 -37 124q0 114 112 162q61 26 212 42q-3 39 -23 53.5t-67 14.5q-69 0 -167 -39q9 52 13 107q58 18 142 18h35q86 0 129.5 -34.5t53.5 -116.5q2 -16 11 -176q6 -104 29 -175zM359 288q-103 -15 -126 -22
q-74 -25 -74 -84q0 -44 18 -74q19 -35 54 -35q89 0 141 34zM286 564q-49 0 -84.5 29.5t-35.5 78.5q0 50 39 79q35 27 86 27q50 0 84 -24q38 -28 38 -77q0 -51 -37.5 -82t-89.5 -31zM289 723q-22 0 -37 -15t-15 -37q0 -20 15.5 -33.5t37.5 -13.5q52 0 52 49q0 50 -53 50z" />
    <glyph glyph-name="ae" unicode="&#xe6;" horiz-adv-x="889" 
d="M858 287q-31 -15 -90 -39q-24 -7 -141 -8h-133q22 -163 159 -163q91 0 189 48q-11 -70 -14 -113q-77 -25 -187 -25q-114 0 -204 70q-94 -70 -192 -70q-83 0 -140 41q-64 47 -64 127q0 103 123 143q73 23 210 26q-3 59 -18 82q-20 30 -73 30q-81 0 -189 -41q7 60 8 104
q97 27 201 27q82 0 153 -67q93 67 179 67q96 0 160 -56.5t64 -148.5q0 -6 -1 -34zM627 440q-83 0 -123 -115q125 8 227 17q-21 98 -104 98zM374 233q-205 -1 -205 -78q0 -32 26.5 -51.5t63.5 -19.5q66 0 131 55q-10 40 -16 94z" />
    <glyph glyph-name="ccedilla" unicode="&#xe7;" horiz-adv-x="515" 
d="M485 399q-70 36 -143 36q-174 0 -174 -181q0 -79 48 -127.5t129 -48.5q88 0 150 15l-10 -91q-52 -11 -136 -10q-14 -37 -41 -123q-55 2 -123 0q26 47 69 130q-100 21 -158.5 95t-58.5 176q0 126 79 192q74 64 206 64q89 0 179 -16q-9 -44 -16 -111z" />
    <glyph glyph-name="egrave" unicode="&#xe8;" horiz-adv-x="580" 
d="M433 207h-251q6 -74 65 -105q48 -26 142 -26q46 0 117 15l-9 -89q-77 -9 -136 -9q-312 0 -312 265q0 269 268 269q212 0 215 -277q-38 -20 -99 -43zM310 448q-131 0 -131 -158v-6l231 19q-4 72 -17 98q-22 47 -83 47zM304 573q-91 80 -109 164l134 2q7 -61 58 -166h-83z
" />
    <glyph glyph-name="eacute" unicode="&#xe9;" horiz-adv-x="580" 
d="M433 207h-251q6 -74 65 -105q48 -26 142 -26q46 0 117 15l-9 -89q-77 -9 -136 -9q-312 0 -312 265q0 269 268 269q212 0 215 -277q-38 -20 -99 -43zM310 448q-131 0 -131 -158v-6l231 19q-4 72 -17 98q-22 47 -83 47zM338 567l-86 1q51 90 65 164h136q-22 -77 -115 -165z
" />
    <glyph glyph-name="ecircumflex" unicode="&#xea;" horiz-adv-x="580" 
d="M433 207h-251q6 -74 65 -105q48 -26 142 -26q46 0 117 15l-9 -89q-77 -9 -136 -9q-312 0 -312 265q0 269 268 269q212 0 215 -277q-38 -20 -99 -43zM310 448q-131 0 -131 -158v-6l231 19q-4 72 -17 98q-22 47 -83 47zM376 562l-68 79l-81 -72l-121 -7l156 155l98 6
l137 -151z" />
    <glyph glyph-name="edieresis" unicode="&#xeb;" horiz-adv-x="580" 
d="M433 207h-251q6 -74 65 -105q48 -26 142 -26q46 0 117 15l-9 -89q-77 -9 -136 -9q-312 0 -312 265q0 269 268 269q212 0 215 -277q-38 -20 -99 -43zM310 448q-131 0 -131 -158v-6l231 19q-4 72 -17 98q-22 47 -83 47zM468 643q-36 -36 -138 -57l-16 90q58 31 166 92
q-4 -67 -12 -125zM273 642q-36 -36 -138 -57l-16 90q58 30 166 92q-4 -67 -12 -125z" />
    <glyph glyph-name="igrave" unicode="&#xec;" horiz-adv-x="265" 
d="M198 241q0 -110 6 -239q-7 0 -133 -8q11 102 11 207v118q0 82 -10 183q65 9 135 23q-9 -150 -9 -284zM127 573q-91 80 -109 164l134 2q7 -61 58 -166h-83z" />
    <glyph glyph-name="iacute" unicode="&#xed;" horiz-adv-x="272" 
d="M198 241q0 -110 6 -239q-7 0 -133 -8q11 102 11 207v118q0 82 -10 183q65 9 135 23q-9 -150 -9 -284zM161 566l-86 1q51 89 65 164h136q-22 -78 -115 -165z" />
    <glyph glyph-name="icircumflex" unicode="&#xee;" horiz-adv-x="268" 
d="M198 241q0 -110 6 -239q-7 0 -133 -8q11 102 11 207v118q0 82 -10 183q65 9 135 23q-9 -150 -9 -284zM225 564l-68 78l-82 -72l-120 -7l155 156l99 6l137 -152z" />
    <glyph glyph-name="idieresis" unicode="&#xef;" horiz-adv-x="320" 
d="M205 241q0 -110 6 -239q-7 0 -133 -8q11 102 11 207v118q0 82 -10 183q65 9 135 23q-9 -150 -9 -284zM336 643q-36 -36 -138 -57l-16 90q58 31 166 92q-4 -67 -12 -125zM141 642q-36 -36 -138 -57l-16 90q58 30 166 92q-4 -67 -12 -125z" />
    <glyph glyph-name="ntilde" unicode="&#xf1;" 
d="M435 -20q0 55 -2 161q-2 95 -2 145q0 66 -20 97q-23 35 -85 50q-32 8 -63 8q-27 0 -66 -10q0 -10 -2 -47q-2 -29 -2 -46q0 -191 7 -339q-76 -2 -133 -4q7 102 7 197q0 181 -9 315q138 22 215 22q242 0 264 -158q5 -38 5 -114q0 -144 7 -239q-44 -11 -121 -38zM478 601
q-61 -30 -98 -30q-26 0 -76 28t-79 28q-17 0 -47 -19q-21 -14 -41 -28v29v32v33q31 58 89 58q29 0 79 -28t79 -28q19 0 56 19q25 15 51 30q-4 -44 -13 -124z" />
    <glyph glyph-name="ograve" unicode="&#xf2;" 
d="M309 -13q-125 0 -198 91q-66 82 -66 202q0 247 277 247q122 0 188 -65t66 -182q0 -124 -66 -204q-72 -89 -201 -89zM312 443q-144 0 -144 -166q0 -81 31 -138q37 -69 107 -69q74 0 114 64q34 55 34 137q0 87 -28 126q-33 46 -114 46zM313 573q-91 80 -108 164l134 2
q7 -61 57 -166h-83z" />
    <glyph glyph-name="oacute" unicode="&#xf3;" 
d="M309 -13q-125 0 -198 91q-66 82 -66 202q0 247 277 247q122 0 188 -65t66 -182q0 -124 -66 -204q-72 -89 -201 -89zM312 443q-144 0 -144 -166q0 -81 31 -138q37 -69 107 -69q74 0 114 64q34 55 34 137q0 87 -28 126q-33 46 -114 46zM332 566l-87 1q52 90 65 164h136
q-22 -77 -114 -165z" />
    <glyph glyph-name="ocircumflex" unicode="&#xf4;" 
d="M309 -13q-125 0 -198 91q-66 82 -66 202q0 247 277 247q122 0 188 -65t66 -182q0 -124 -66 -204q-72 -89 -201 -89zM312 443q-144 0 -144 -166q0 -81 31 -138q37 -69 107 -69q74 0 114 64q34 55 34 137q0 87 -28 126q-33 46 -114 46zM394 561l-68 79l-81 -72l-121 -7
l156 155l98 6l137 -151z" />
    <glyph glyph-name="otilde" unicode="&#xf5;" 
d="M309 -13q-125 0 -198 91q-66 82 -66 202q0 247 277 247q122 0 188 -65t66 -182q0 -124 -66 -204q-72 -89 -201 -89zM312 443q-144 0 -144 -166q0 -81 31 -138q37 -69 107 -69q74 0 114 64q34 55 34 137q0 87 -28 126q-33 46 -114 46zM490 601q-61 -30 -98 -30
q-26 0 -76 28t-79 28q-18 0 -48 -19q-20 -14 -41 -28v29q0 10 1 32v33q31 58 89 58q29 0 79 -28t78 -28q20 0 56 19l52 30q-4 -44 -13 -124z" />
    <glyph glyph-name="odieresis" unicode="&#xf6;" horiz-adv-x="601" 
d="M309 -13q-125 0 -198 91q-66 82 -66 202q0 247 277 247q122 0 188 -65t66 -182q0 -124 -66 -204q-72 -89 -201 -89zM312 443q-144 0 -144 -166q0 -81 31 -138q37 -69 107 -69q74 0 114 64q34 55 34 137q0 87 -28 126q-33 46 -114 46zM496 643q-36 -36 -138 -57l-16 90
q58 31 166 92q-4 -67 -12 -125zM301 642q-36 -36 -138 -57l-16 90q58 30 166 92q-4 -67 -12 -125z" />
    <glyph glyph-name="divide" unicode="&#xf7;" horiz-adv-x="714" 
d="M368 399q-28 0 -44 16.5t-16 42.5t17.5 42.5t44.5 16.5q28 0 45 -16.5t17 -43.5q0 -26 -19.5 -42t-44.5 -16zM23 241v85h693v-85h-693zM368 50q-59 0 -59 60q0 26 18.5 42.5t44.5 16.5q27 0 44.5 -16.5t17.5 -42.5q0 -27 -20 -43.5t-46 -16.5z" />
    <glyph glyph-name="oslash" unicode="&#xf8;" horiz-adv-x="611" 
d="M541 408q30 -73 30 -143q0 -125 -59 -197q-66 -81 -196 -81q-104 0 -190 70q-32 -28 -74 -69q-26 24 -54 54q57 45 89 71q-27 76 -27 154q0 121 69 190.5t194 69.5q89 0 179 -63q37 32 71 64q24 -26 49 -56q-52 -41 -81 -64zM319 447q-73 0 -109 -58q-30 -49 -30 -131
q0 -31 5 -62l238 202q-52 49 -104 49zM451 332l-249 -211q51 -58 113 -58q87 0 119 61q24 45 24 145q0 31 -7 63z" />
    <glyph glyph-name="ugrave" unicode="&#xf9;" 
d="M458 -13l-24 36q-71 -36 -175 -36q-97 0 -143 54q-36 43 -44 126q-2 25 -2 145q0 117 -8 200q79 3 137 7q-11 -107 -11 -282q0 -79 16 -113q22 -48 86 -48q76 0 123 32q2 120 2 194q0 110 -6 211l129 4q-6 -171 -6 -343q0 -77 23 -146zM300 573q-91 80 -108 164l134 2
q7 -61 57 -166h-83z" />
    <glyph glyph-name="uacute" unicode="&#xfa;" 
d="M458 -13l-24 36q-71 -36 -175 -36q-97 0 -143 54q-36 43 -44 126q-2 25 -2 145q0 117 -8 200q79 3 137 7q-11 -107 -11 -282q0 -79 16 -113q22 -48 86 -48q76 0 123 32q2 120 2 194q0 110 -6 211l129 4q-6 -171 -6 -343q0 -77 23 -146zM317 567l-87 1q52 89 65 164h136
q-21 -78 -114 -165z" />
    <glyph glyph-name="ucircumflex" unicode="&#xfb;" 
d="M458 -13l-24 36q-71 -36 -175 -36q-97 0 -143 54q-36 43 -44 126q-2 25 -2 145q0 117 -8 200q79 3 137 7q-11 -107 -11 -282q0 -79 16 -113q22 -48 86 -48q76 0 123 32q2 120 2 194q0 110 -6 211l129 4q-6 -171 -6 -343q0 -77 23 -146zM378 565l-68 78l-81 -72l-121 -7
l156 156l98 6l137 -151z" />
    <glyph glyph-name="udieresis" unicode="&#xfc;" horiz-adv-x="606" 
d="M458 -13l-24 36q-71 -36 -175 -36q-97 0 -143 54q-36 43 -44 126q-3 25 -3 145q0 117 -7 200q79 3 137 7q-11 -107 -11 -282q0 -79 16 -113q22 -48 86 -48q76 0 123 32q2 120 2 194q0 110 -6 211l129 4q-6 -171 -6 -343q0 -77 23 -146zM486 643q-36 -36 -138 -57l-16 90
q58 31 166 92q-4 -67 -12 -125zM291 642q-36 -36 -138 -57l-16 90q58 30 166 92q-4 -67 -12 -125z" />
    <glyph glyph-name="ydieresis" unicode="&#xff;" horiz-adv-x="489" 
d="M353 42q-86 -188 -216 -240l-52 34q88 90 130 177q-32 92 -98 238q-89 194 -111 247q79 15 139 33q27 -90 129 -379q60 142 110 363q86 0 147 1q-109 -323 -178 -474zM448 643q-36 -36 -138 -57l-16 90q58 31 166 92q-4 -67 -12 -125zM253 642q-36 -36 -138 -57l-16 90
q58 30 166 92q-4 -67 -12 -125z" />
    <glyph glyph-name="dotlessi" unicode="&#x131;" horiz-adv-x="281" 
d="M198 241q0 -110 6 -239q-7 0 -133 -8q11 102 11 207v118q0 82 -10 183q65 9 135 23q-9 -150 -9 -284z" />
    <glyph glyph-name="OE" unicode="&#x152;" horiz-adv-x="1007" 
d="M949 584l-292 6q-2 -73 -4 -186q81 0 280 2l-15 -92q-185 -17 -199 -17q-21 0 -68 10q-2 -69 -2 -124q0 -43 1 -90q120 0 305 6q-4 -45 -9 -89q-172 -14 -259 -14h-241q-175 0 -270 84q-55 49 -87 127q-30 74 -30 149q0 262 256 321q53 12 152 12q41 0 243 -2
q152 -2 256 0q-11 -53 -17 -103zM457 594q-262 0 -262 -246q0 -257 266 -257q29 0 54 1q6 280 7 501q-29 1 -65 1z" />
    <glyph glyph-name="oe" unicode="&#x153;" horiz-adv-x="942" 
d="M912 307l-68 -55l-293 -4q1 -26 9 -76q31 -96 159 -96q61 0 192 15l-17 -85q-52 -19 -145 -19t-138 13q-58 16 -115 70q-94 -83 -199 -83q-120 0 -188 85q-62 76 -62 191q0 122 64 191q67 73 193 73q115 0 197 -87q94 87 188 87q65 0 111.5 -23.5t80.5 -73t34 -98.5
q0 -10 -3 -25zM683 441q-43 0 -77 -37q-30 -33 -45 -83q79 6 237 21q-35 99 -115 99zM307 438q-136 0 -136 -171q0 -81 29 -133q36 -63 107 -63q128 0 128 182q0 185 -128 185z" />
    <glyph glyph-name="Ydieresis" unicode="&#x178;" horiz-adv-x="580" 
d="M359 287q-3 -88 -3 -113q0 -44 6 -174q-62 -1 -141 -5q5 134 5 246q0 18 -2 38q-93 171 -220 387l147 26q49 -136 152 -305q41 59 81 146q7 15 66 153q55 -7 140 -13q-49 -89 -117 -201q-57 -93 -114 -185zM490 783q-36 -36 -138 -57l-17 90q59 30 167 91
q-4 -66 -12 -124zM295 782q-36 -36 -138 -57l-17 90q59 30 167 91q-4 -66 -12 -124z" />
    <glyph glyph-name="florin" unicode="&#x192;" horiz-adv-x="399" 
d="M380 568q-38 11 -52 11q-30 0 -43.5 -12t-21.5 -41q-7 -24 -16 -114q29 0 105 3l-17 -86q-33 1 -95 2q-8 -80 -25 -240q-3 -44 -14 -133q-13 -75 -47 -107q-38 -35 -116 -35q-32 0 -88 10q10 50 16 88q38 -8 52 -8q47 0 62 47q10 33 19 125l25 253l-86 -1q9 39 16 87
q37 -3 78 -4q10 133 27 172q37 85 149 85q32 0 87 -11z" />
    <glyph glyph-name="circumflex" unicode="&#x2c6;" horiz-adv-x="528" 
d="M349 716l-69 78l-81 -72l-121 -7l156 156l98 6l138 -152z" />
    <glyph glyph-name="caron" unicode="&#x2c7;" horiz-adv-x="312" 
d="M213 526l-111 -2l-113 177l99 1l75 -105l63 102h105z" />
    <glyph glyph-name="breve" unicode="&#x2d8;" horiz-adv-x="312" 
d="M157 540q-67 0 -104 49q-33 43 -36 116q55 3 93 5q7 -74 52 -74q38 0 50 70q27 0 92 2q-18 -168 -147 -168z" />
    <glyph glyph-name="dotaccent" unicode="&#x2d9;" horiz-adv-x="312" 
d="M73 561q2 115 2 138q72 0 120 2q-1 -54 0 -140q-61 2 -122 0z" />
    <glyph glyph-name="ring" unicode="&#x2da;" horiz-adv-x="541" 
d="M286 616q-49 0 -84.5 29.5t-35.5 78.5q0 50 39 79q35 27 86 27q50 0 84 -24q38 -28 38 -78t-37.5 -81t-89.5 -31zM289 775q-22 0 -37 -15t-15 -37q0 -20 15.5 -33.5t37.5 -13.5q52 0 52 48q0 51 -53 51z" />
    <glyph glyph-name="ogonek" unicode="&#x2db;" horiz-adv-x="312" 
d="M263 -141q-55 -25 -94 -25q-42 0 -71 25t-29 66q0 81 141 131l30 -27q-79 -53 -79 -80q0 -16 13.5 -31.5t26.5 -15.5q16 0 73 28q-4 -51 -11 -71z" />
    <glyph glyph-name="tilde" unicode="&#x2dc;" horiz-adv-x="495" 
d="M385 601q-62 -30 -99 -30q-25 0 -75.5 28t-79.5 28q-17 0 -47 -19q-21 -14 -41 -28v29v32v34q31 57 89 57q30 0 79.5 -28t78.5 -28q19 0 56 19q26 15 51 30q-4 -44 -12 -124z" />
    <glyph glyph-name="hungarumlaut" unicode="&#x2dd;" horiz-adv-x="417" 
d="M292 527q-38 3 -106 3q54 105 85 188q73 -2 135 -1q-71 -113 -114 -190zM108 528q-38 2 -109 2q48 90 79 189q54 -3 129 -4q-56 -108 -99 -187z" />
    <glyph glyph-name="Delta" unicode="&#x394;" horiz-adv-x="701" 
d="M622 593q-89 9 -133 9q-201 0 -245 -163h342l-31 -81l-318 -7l2 -27h322l-31 -81l-269 -6q64 -153 211 -153q63 0 168 13l-10 -99q-116 -7 -170 -7q-124 0 -212 65t-126 178l-87 -2l25 92h43l-2 24l-67 -1l24 92h47q23 130 127 198q95 62 237 62q76 0 171 -5
q-4 -32 -18 -101z" />
    <glyph glyph-name="Delta" unicode="&#x2206;" horiz-adv-x="701" 
d="M622 593q-89 9 -133 9q-201 0 -245 -163h342l-31 -81l-318 -7l2 -27h322l-31 -81l-269 -6q64 -153 211 -153q63 0 168 13l-10 -99q-116 -7 -170 -7q-124 0 -212 65t-126 178l-87 -2l25 92h43l-2 24l-67 -1l24 92h47q23 130 127 198q95 62 237 62q76 0 171 -5
q-4 -32 -18 -101z" />
    <glyph glyph-name="Omega" unicode="&#x3a9;" horiz-adv-x="588" 
 />
    <glyph glyph-name="Omega" unicode="&#x2126;" horiz-adv-x="588" 
 />
    <glyph glyph-name="pi" unicode="&#x3c0;" horiz-adv-x="588" 
 />
    <glyph glyph-name="endash" unicode="&#x2013;" horiz-adv-x="600" 
d="M525 224l-442 -1q4 35 11 110q92 -2 146 -2q160 0 296 5q-4 -36 -11 -112z" />
    <glyph glyph-name="emdash" unicode="&#x2014;" horiz-adv-x="780" 
d="M675 228q-208 4 -226 4q-152 0 -287 -4l-63 -1l9 106q196 -3 297 -3q89 0 285 8z" />
    <glyph glyph-name="quoteleft" unicode="&#x2018;" horiz-adv-x="302" 
d="M210 601q-3 -16 -19 -131q-16 -1 -133 -8q10 72 41 139q8 19 68 128l78 10q-24 -71 -35 -138z" />
    <glyph glyph-name="quoteright" unicode="&#x2019;" horiz-adv-x="271" 
d="M174 594q-7 -14 -65 -123l-79 -9q29 83 54 269q17 0 133 8q-11 -77 -43 -145z" />
    <glyph glyph-name="quotesinglbase" unicode="&#x201a;" horiz-adv-x="292" 
d="M211 -8q-6 -12 -67 -125l-85 -10q30 84 56 275q14 1 139 8q-10 -78 -43 -148z" />
    <glyph glyph-name="quotedblleft" unicode="&#x201c;" horiz-adv-x="419" 
d="M301 472q-59 109 -68 128q-30 67 -40 139q43 -3 132 -8q15 -104 20 -135q13 -72 34 -133zM144 469q-60 109 -68 128q-31 67 -41 139q43 -3 133 -8q14 -103 20 -135q13 -72 34 -133z" />
    <glyph glyph-name="quotedblright" unicode="&#x201d;" horiz-adv-x="419" 
d="M332 594q-7 -14 -66 -123l-78 -9q28 83 54 269q16 1 132 8q-10 -77 -42 -145zM174 590q-7 -14 -65 -123l-79 -9q29 83 54 269q17 0 133 8q-11 -77 -43 -145z" />
    <glyph glyph-name="quotedblbase" unicode="&#x201e;" horiz-adv-x="461" 
d="M378 -8q-5 -12 -66 -125l-85 -10q30 84 56 275q13 1 138 8q-10 -78 -43 -148zM211 -8q-6 -12 -67 -125l-85 -10q30 84 56 275q14 1 139 8q-10 -78 -43 -148z" />
    <glyph glyph-name="dagger" unicode="&#x2020;" horiz-adv-x="512" 
d="M484 417q-110 4 -168 5q-3 -163 -3 -287q0 -152 5 -299q-75 0 -126 -1q14 210 17 587q-105 -2 -182 -4q10 45 14 90q50 -2 170 -2q-1 73 -10 233q73 0 122 1q-5 -98 -5 -179v-55l175 3q-7 -52 -9 -92z" />
    <glyph glyph-name="daggerdbl" unicode="&#x2021;" horiz-adv-x="512" 
d="M488 420q-60 1 -172 2l-4 -251q55 0 183 3q-9 -46 -14 -91q-32 1 -170 3q1 -84 5 -250q-72 0 -122 -1q10 112 14 251q-55 0 -186 -3q12 45 14 90q22 0 58 -1h46h70q0 151 1 250q-105 -2 -184 -4q9 40 13 89h55q31 -1 45 -1h71v44q0 81 -7 189q70 0 118 1q-5 -77 -6 -234
l184 2q-3 -28 -12 -88z" />
    <glyph glyph-name="bullet" unicode="&#x2022;" horiz-adv-x="388" 
d="M176 185q-64 0 -113 46t-49 107t49.5 110.5t113.5 49.5q63 0 110.5 -46.5t47.5 -106.5q0 -62 -47 -111t-112 -49z" />
    <glyph glyph-name="ellipsis" unicode="&#x2026;" horiz-adv-x="1069" 
d="M915 -10q-32 0 -50 23q-16 20 -16 48q0 29 15 49q18 25 50 25q33 0 50 -24q14 -20 14 -48q0 -27 -15 -48q-17 -25 -48 -25zM575 -10q-32 0 -50 24q-16 21 -16 49q0 29 17 50.5t49 21.5q31 0 48 -25q14 -20 14 -47t-13 -47q-17 -26 -49 -26zM233 -10q-31 0 -49 24
q-15 20 -15 48q0 29 15 49q19 24 51 24t47 -21.5t15 -48.5q0 -28 -14 -49q-17 -26 -50 -26z" />
    <glyph glyph-name="perthousand" unicode="&#x2030;" horiz-adv-x="1444" 
d="M1212 -9q-181 0 -181 217q0 97 41 159q50 75 151 75q98 0 143 -71q37 -57 37 -151q0 -98 -40 -157q-50 -72 -151 -72zM785 -9q-184 0 -184 218q0 97 41 158q50 75 151 75q182 0 182 -222q0 -97 -40 -156q-49 -73 -150 -73zM400 -2l-107 1q194 393 306 659h105
q-175 -367 -304 -660zM218 214q-182 0 -182 220q0 97 41 157q50 74 150 74q180 0 180 -222q0 -97 -40 -157q-48 -72 -149 -72zM1221 366q-48 0 -69 -58q-15 -40 -15 -97q0 -52 15 -90q20 -52 64 -52q59 0 77 56q11 31 11 104q0 48 -17 87q-23 50 -66 50zM792 366
q-48 0 -70 -59q-15 -41 -15 -99q0 -139 81 -139q82 0 82 138q0 70 -9 101q-17 58 -69 58zM225 588q-83 0 -83 -154q0 -142 78 -142q84 0 84 155q0 65 -9 92q-17 49 -70 49z" />
    <glyph glyph-name="guilsinglleft" unicode="&#x2039;" horiz-adv-x="288" 
d="M135 70q-42 83 -110 201q34 64 102 196h106q-54 -90 -108 -194q40 -76 113 -203h-103z" />
    <glyph glyph-name="guilsinglright" unicode="&#x203a;" horiz-adv-x="290" 
d="M157 71h-107q58 94 109 192q-7 14 -115 203q59 3 104 7q45 -93 109 -205z" />
    <glyph glyph-name="fraction" unicode="&#x2044;" horiz-adv-x="400" 
d="M75 -2l-87 1q139 291 311 686h85q-163 -343 -309 -687z" />
    <glyph glyph-name="euro" unicode="&#x20ac;" horiz-adv-x="701" 
d="M622 593q-89 9 -133 9q-201 0 -245 -163h342l-31 -81l-318 -7l2 -27h322l-31 -81l-269 -6q64 -153 211 -153q63 0 168 13l-10 -99q-116 -7 -170 -7q-124 0 -212 65t-126 178l-87 -2l25 92h43l-2 24l-67 -1l24 92h47q23 130 127 198q95 62 237 62q76 0 171 -5
q-4 -32 -18 -101z" />
    <glyph glyph-name="trademark" unicode="&#x2122;" horiz-adv-x="755" 
d="M611 341v224l-85 -224h-40l-86 224l3 -224h-66v345h91l76 -202l84 202h89l1 -345h-67zM288 628h-93l-1 -287h-73l1 287h-108v58h276z" />
    <glyph glyph-name="partialdiff" unicode="&#x2202;" horiz-adv-x="588" 
 />
    <glyph glyph-name="product" unicode="&#x220f;" horiz-adv-x="588" 
 />
    <glyph glyph-name="summation" unicode="&#x2211;" horiz-adv-x="662" 
 />
    <glyph glyph-name="radical" unicode="&#x221a;" horiz-adv-x="588" 
 />
    <glyph glyph-name="infinity" unicode="&#x221e;" horiz-adv-x="588" 
 />
    <glyph glyph-name="integral" unicode="&#x222b;" horiz-adv-x="588" 
 />
    <glyph glyph-name="approxequal" unicode="&#x2248;" horiz-adv-x="588" 
 />
    <glyph glyph-name="approxequal" unicode="&#x22f2;" horiz-adv-x="588" 
 />
    <glyph glyph-name="notequal" unicode="&#x2260;" horiz-adv-x="980" 
 />
    <glyph glyph-name="lessequal" unicode="&#x2264;" horiz-adv-x="588" 
 />
    <glyph glyph-name="greaterequal" unicode="&#x2265;" horiz-adv-x="588" 
 />
    <glyph glyph-name="lozenge" unicode="&#x25ca;" horiz-adv-x="588" 
 />
    <glyph glyph-name="apple" unicode="&#xf000;" horiz-adv-x="821" 
d="M405 89q-116 0 -197 81.5t-81 192.5q0 112 81 193.5t197 81.5t197 -81.5t81 -193.5q0 -111 -81 -192.5t-197 -81.5z" />
    <glyph glyph-name="fi" unicode="&#xf001;" horiz-adv-x="647" 
 />
    <glyph glyph-name="fl" unicode="&#xf002;" horiz-adv-x="649" 
 />
    </font>
</defs>
</svg>
